<svg width="51" height="25" viewBox="0 0 51 25" fill="none" xmlns="http://www.w3.org/2000/svg">
<path d="M19.2743 7.92395L10.4833 4.41966L1.69221 7.92395V9.96121H19.2743V7.92395Z" fill="white"/>
<path d="M6.21129 11.3059C6.47208 11.3059 6.68346 11.1145 6.68346 10.8781C6.68346 10.6416 6.47208 10.4502 6.21129 10.4502H3.42329C3.1625 10.4502 2.95118 10.6416 2.95118 10.8781C2.95118 11.1145 3.1625 11.3059 3.42329 11.3059H3.58066V17.418H3.42329C3.1625 17.418 2.95118 17.6095 2.95118 17.8458C2.95118 18.0822 3.1625 18.2739 3.42329 18.2739H6.21129C6.47208 18.2739 6.68346 18.0822 6.68346 17.8458C6.68346 17.6095 6.47208 17.418 6.21129 17.418H6.05392V11.3059H6.21129Z" fill="white"/>
<path d="M11.8772 11.3059C12.138 11.3059 12.3494 11.1145 12.3494 10.8781C12.3494 10.6416 12.138 10.4502 11.8772 10.4502H9.08924C8.82851 10.4502 8.61712 10.6416 8.61712 10.8781C8.61712 11.1145 8.82851 11.3059 9.08924 11.3059H9.24667V17.418H9.08924C8.82851 17.418 8.61712 17.6095 8.61712 17.8458C8.61712 18.0822 8.82851 18.2739 9.08924 18.2739H11.8772C12.138 18.2739 12.3494 18.0822 12.3494 17.8458C12.3494 17.6095 12.138 17.418 11.8772 17.418H11.7198V11.3059H11.8772Z" fill="white"/>
<path d="M17.6331 11.3059C17.8938 11.3059 18.1052 11.1145 18.1052 10.8781C18.1052 10.6416 17.8938 10.4502 17.6331 10.4502H14.8451C14.5843 10.4502 14.3729 10.6416 14.3729 10.8781C14.3729 11.1145 14.5843 11.3059 14.8451 11.3059H15.0024V17.418H14.8451C14.5843 17.418 14.3729 17.6095 14.3729 17.8458C14.3729 18.0822 14.5843 18.2739 14.8451 18.2739H17.6331C17.8938 18.2739 18.1052 18.0822 18.1052 17.8458C18.1052 17.6095 17.8938 17.418 17.6331 17.418H17.4757V11.3059H17.6331Z" fill="white"/>
<path d="M2.14175 19.8221H18.8247C19.0721 19.8221 19.2743 19.6387 19.2743 19.4148V19.1702C19.2743 18.946 19.0721 18.7627 18.8247 18.7627H2.14175C1.89449 18.7627 1.69221 18.946 1.69221 19.1702V19.4148C1.69221 19.6387 1.89449 19.8221 2.14175 19.8221Z" fill="white"/>
<path d="M19.9939 20.3111H0.972666C0.725291 20.3111 0.522949 20.4946 0.522949 20.7185V21.0852C0.522949 21.3094 0.725291 21.4928 0.972666 21.4928H19.9939C20.2412 21.4928 20.4435 21.3094 20.4435 21.0852V20.7185C20.4435 20.4946 20.2412 20.3111 19.9939 20.3111Z" fill="white"/>
<path d="M27.8631 10.5358C27.6968 10.3361 27.4584 10.1974 27.1526 10.116C27.3909 10.01 27.5708 9.87176 27.6878 9.6963C27.8047 9.52106 27.8631 9.33361 27.8631 9.138C27.8631 8.92624 27.8002 8.72653 27.6653 8.53087C27.5304 8.33542 27.346 8.19286 27.1122 8.09903C26.8783 8.00531 26.5636 7.96052 26.1769 7.96052H24.2702V12.5691H26.2083C26.5321 12.5691 26.8018 12.5446 27.0267 12.4916C27.2516 12.4386 27.4359 12.3654 27.5844 12.2636C27.7326 12.1656 27.8586 12.0231 27.9576 11.8357C28.061 11.6483 28.1104 11.4484 28.1104 11.2325C28.1104 10.9634 28.0296 10.7314 27.8631 10.5358ZM24.9402 8.50661H25.961C26.3252 8.50661 26.586 8.52703 26.7345 8.57165C26.8828 8.61644 26.9997 8.69395 27.0806 8.81215C27.1616 8.92624 27.2021 9.06064 27.2021 9.21552C27.2021 9.3785 27.1572 9.51295 27.0717 9.61894C26.9862 9.72487 26.8558 9.80245 26.685 9.84712C26.5546 9.88369 26.3386 9.90017 26.042 9.90017H24.9402V8.50661ZM27.3101 11.6236C27.2426 11.7377 27.1572 11.8234 27.0538 11.8805C26.9503 11.9416 26.8199 11.9824 26.667 12.0067C26.577 12.019 26.4242 12.0271 26.2083 12.0271H24.9402V10.4419H26.1183C26.4422 10.4419 26.6894 10.4665 26.8603 10.5194C27.0312 10.5723 27.1662 10.662 27.265 10.7884C27.3595 10.9146 27.4089 11.0654 27.4089 11.2366C27.4089 11.3834 27.3775 11.5095 27.3101 11.6236Z" fill="white"/>
<path d="M31.9731 12.1616C31.9462 12.0231 31.9326 11.6889 31.9326 11.1633V10.4094C31.9326 10.1568 31.9236 9.98565 31.9012 9.88787C31.8652 9.729 31.8023 9.60259 31.7078 9.50066C31.6179 9.39888 31.474 9.31326 31.2761 9.24806C31.0828 9.17886 30.8265 9.14607 30.5117 9.14607C30.1925 9.14607 29.9136 9.18691 29.6753 9.26443C29.4325 9.34594 29.2481 9.45604 29.1222 9.60259C28.9962 9.74937 28.9019 9.94097 28.8479 10.177L29.4595 10.2547C29.5269 10.0142 29.6303 9.8513 29.7697 9.75747C29.9092 9.66374 30.1294 9.61896 30.4218 9.61896C30.7365 9.61896 30.9748 9.68422 31.1322 9.81057C31.2492 9.90829 31.3076 10.0672 31.3076 10.2994C31.3076 10.3198 31.3076 10.3687 31.3032 10.4462C31.0648 10.5235 30.6916 10.5889 30.1879 10.6416C29.9406 10.6702 29.7562 10.6988 29.6349 10.7272C29.4684 10.772 29.3201 10.8332 29.1851 10.9146C29.0502 10.9962 28.9423 11.1062 28.8614 11.2407C28.7805 11.3751 28.7399 11.5259 28.7399 11.6889C28.7399 11.9701 28.8523 12.1983 29.0682 12.3774C29.2885 12.5568 29.5988 12.6465 30.0036 12.6465C30.2464 12.6465 30.4758 12.6098 30.6916 12.5365C30.9074 12.4632 31.1322 12.3368 31.3616 12.1575C31.3795 12.3166 31.42 12.4549 31.4785 12.561H32.1305C32.054 12.4347 32 12.3001 31.9731 12.1616ZM31.3076 11.1022C31.3076 11.3507 31.2761 11.5421 31.2087 11.6687C31.1187 11.8357 30.9839 11.9659 30.795 12.0598C30.6062 12.1535 30.3903 12.2023 30.152 12.2023C29.9092 12.2023 29.7247 12.1535 29.5988 12.0516C29.4729 11.9497 29.41 11.8234 29.41 11.6726C29.41 11.5748 29.437 11.4851 29.4953 11.4038C29.5539 11.3222 29.6349 11.2611 29.7426 11.2202C29.8507 11.1756 30.0306 11.1387 30.2869 11.1062C30.7411 11.0493 31.0828 10.9801 31.3076 10.8942V11.1022Z" fill="white"/>
<path d="M35.2064 10.0224C35.2558 10.1365 35.2783 10.3074 35.2783 10.5397V12.5691H35.9034V10.5194C35.9034 10.2586 35.8899 10.0752 35.8674 9.96942C35.8314 9.80633 35.7684 9.66783 35.674 9.54963C35.5796 9.43143 35.4402 9.33787 35.2558 9.2644C35.0714 9.1911 34.8646 9.15458 34.6442 9.15458C34.1317 9.15458 33.7404 9.33787 33.4706 9.70456V9.23194H32.9085V12.5691H33.538V10.7476C33.538 10.3197 33.6324 10.0304 33.8258 9.87553C34.0192 9.72487 34.2484 9.64746 34.5138 9.64746C34.6802 9.64746 34.8241 9.68009 34.9501 9.74934C35.0714 9.81865 35.1568 9.90827 35.2064 10.0224Z" fill="white"/>
<path d="M39.9144 12.5691L38.3676 10.4706L39.775 9.23194H38.9656L37.4863 10.5889V7.96052H36.8612V12.5691H37.4863V11.2449L37.9268 10.8618L39.1456 12.5691H39.9144Z" fill="white"/>
<path d="M23.915 15.8451H25.5922V19.9117H26.2623V15.8451H27.9441V15.3032H23.915V15.8451Z" fill="white"/>
<path d="M29.2437 16.6112C29.1223 16.6887 28.9919 16.8433 28.8479 17.0798V16.5746H28.2858V19.9117H28.9064V18.1636C28.9064 17.9232 28.9424 17.7032 29.0098 17.5036C29.0593 17.3731 29.1357 17.2672 29.2437 17.1941C29.3516 17.1205 29.4775 17.0838 29.6124 17.0838C29.7653 17.0838 29.9182 17.1246 30.0711 17.206L30.287 16.6804C30.0666 16.5581 29.8552 16.4973 29.6439 16.4973C29.5 16.4973 29.3651 16.5338 29.2437 16.6112Z" fill="white"/>
<path d="M33.6728 19.5043C33.6458 19.3658 33.6323 19.0318 33.6323 18.506V17.7521C33.6323 17.4995 33.6233 17.3283 33.6009 17.2306C33.5649 17.0717 33.5019 16.9453 33.4076 16.8433C33.3176 16.7416 33.1737 16.6562 32.9758 16.5908C32.7825 16.5215 32.5262 16.489 32.2114 16.489C31.8921 16.489 31.6133 16.5296 31.375 16.6071C31.1322 16.6887 30.9478 16.7987 30.8218 16.9453C30.696 17.0921 30.6015 17.2837 30.5476 17.5199L31.1592 17.5975C31.2266 17.3569 31.33 17.1941 31.4694 17.1002C31.6088 17.0065 31.8291 16.9616 32.1214 16.9616C32.4362 16.9616 32.6745 17.0269 32.8319 17.1533C32.9489 17.251 33.0073 17.4098 33.0073 17.6421C33.0073 17.6624 33.0073 17.7113 33.0028 17.7889C32.7645 17.8662 32.3913 17.9314 31.8876 17.9844C31.6403 18.0129 31.4559 18.0415 31.3346 18.0699C31.1681 18.1147 31.0198 18.176 30.8848 18.2573C30.75 18.3389 30.6421 18.4489 30.5611 18.5834C30.4802 18.718 30.4396 18.8686 30.4396 19.0318C30.4396 19.3128 30.5521 19.541 30.768 19.7201C30.9883 19.8996 31.2986 19.9892 31.7033 19.9892C31.9461 19.9892 32.1754 19.9525 32.3913 19.8792C32.6071 19.8059 32.8319 19.6795 33.0613 19.5002C33.0838 19.6551 33.1242 19.7936 33.1783 19.9036H33.8303C33.7538 19.7774 33.6997 19.6428 33.6728 19.5043ZM33.0118 18.4408C33.0118 18.6892 32.9804 18.8808 32.9129 19.0071C32.8229 19.1741 32.688 19.3048 32.4992 19.3982C32.3103 19.4922 32.0944 19.541 31.8561 19.541C31.6133 19.541 31.429 19.4922 31.3031 19.3902C31.1771 19.2882 31.1142 19.162 31.1142 19.0114C31.1142 18.9135 31.1411 18.8238 31.1996 18.7423C31.2581 18.6607 31.339 18.5998 31.447 18.5589C31.5548 18.5141 31.7347 18.4774 31.991 18.4449C32.4451 18.3878 32.7869 18.3185 33.0118 18.2331V18.4408Z" fill="white"/>
<path d="M37.3781 16.8923C37.2837 16.7741 37.1443 16.6804 36.96 16.6071C36.7756 16.5338 36.5687 16.4973 36.3484 16.4973C35.8357 16.4973 35.4446 16.6804 35.1748 17.0473V16.5746H34.6127V19.9157H35.2422V18.0944C35.2422 17.6667 35.3366 17.3772 35.53 17.2225C35.7233 17.0717 35.9527 16.9942 36.218 16.9942C36.3843 16.9942 36.5282 17.0269 36.6541 17.0961C36.7756 17.1654 36.861 17.2551 36.9104 17.3691C36.96 17.4832 36.9824 17.6544 36.9824 17.8866V19.9157H37.6075V17.8621C37.6075 17.6013 37.5939 17.418 37.5715 17.3121C37.5355 17.149 37.4726 17.0105 37.3781 16.8923Z" fill="white"/>
<path d="M40.8092 18.1475C40.6338 18.0822 40.3236 17.9924 39.8828 17.8866C39.5771 17.8133 39.3928 17.7644 39.3298 17.7441C39.2218 17.7032 39.1409 17.6544 39.0915 17.5932C39.0421 17.5321 39.015 17.4668 39.015 17.3936C39.015 17.2795 39.0779 17.1775 39.1993 17.0921C39.3253 17.0065 39.5277 16.9616 39.8154 16.9616C40.0582 16.9616 40.2427 17.0065 40.3776 17.1043C40.5124 17.2021 40.5934 17.3364 40.6203 17.5077L41.2318 17.4303C41.1914 17.2145 41.1195 17.0431 41.0161 16.9126C40.9081 16.7864 40.7508 16.6846 40.5304 16.6071C40.3146 16.5296 40.0582 16.493 39.7705 16.493C39.5771 16.493 39.3972 16.5176 39.2308 16.5623C39.0645 16.6112 38.934 16.6643 38.8351 16.7295C38.7048 16.8149 38.6058 16.921 38.5294 17.0473C38.4528 17.1736 38.417 17.308 38.417 17.4588C38.417 17.6217 38.4619 17.7725 38.5519 17.907C38.6418 18.0415 38.7767 18.1475 38.952 18.2249C39.1319 18.3023 39.4466 18.3919 39.9054 18.4978C40.2471 18.5753 40.4585 18.6404 40.5439 18.6892C40.6654 18.7627 40.7282 18.8646 40.7282 18.991C40.7282 19.1334 40.6608 19.2558 40.5214 19.3617C40.382 19.4675 40.1707 19.5206 39.8828 19.5206C39.5951 19.5206 39.3747 19.4595 39.2174 19.3413C39.06 19.219 38.9655 19.048 38.9296 18.8238L38.3135 18.9135C38.3809 19.2679 38.5429 19.5368 38.7902 19.7201C39.0375 19.8996 39.4062 19.9892 39.8828 19.9892C40.1707 19.9892 40.4315 19.9404 40.6608 19.8505C40.8901 19.761 41.0655 19.6307 41.1869 19.4636C41.3039 19.2964 41.3668 19.1172 41.3668 18.9299C41.3668 18.7342 41.3174 18.5753 41.2184 18.4449C41.1195 18.3146 40.9845 18.2167 40.8092 18.1475Z" fill="white"/>
<path d="M43.0126 15.8451C43.089 15.7718 43.2239 15.7351 43.4128 15.7351C43.5297 15.7351 43.6512 15.7474 43.7815 15.7678L43.8759 15.2747C43.6601 15.238 43.4667 15.2176 43.2913 15.2176C43.0171 15.2176 42.8057 15.2665 42.6529 15.3563C42.4999 15.4498 42.3919 15.5681 42.3336 15.7147C42.2885 15.8247 42.2661 15.9919 42.2661 16.2158V16.5704H41.713V17.0105H42.2616V19.9077H42.8956V17.0105H43.6151V16.5665H42.8956V16.2566C42.8956 16.0571 42.9362 15.9186 43.0126 15.8451Z" fill="white"/>
<path d="M47.2666 18.2331C47.2666 17.6829 47.1092 17.2551 46.7989 16.9495C46.4887 16.6438 46.0884 16.493 45.5939 16.493C45.0856 16.493 44.672 16.6479 44.3527 16.9576C44.0334 17.2672 43.876 17.7032 43.876 18.2655C43.876 18.8115 44.0334 19.2313 44.3481 19.5328C44.663 19.8344 45.0902 19.985 45.6297 19.985C46.0615 19.985 46.4122 19.8913 46.6865 19.7039C46.9608 19.5166 47.1497 19.2517 47.2531 18.9094L46.6101 18.836C46.5156 19.0722 46.3853 19.2476 46.2099 19.3575C46.048 19.4675 45.8546 19.5206 45.6253 19.5206C45.3195 19.5206 45.0632 19.4229 44.8563 19.2272C44.654 19.0318 44.537 18.7504 44.5146 18.3839H47.2621C47.2666 18.3185 47.2666 18.2655 47.2666 18.2331ZM44.5596 17.9193C44.5821 17.6298 44.6899 17.3975 44.8834 17.2225C45.0811 17.0473 45.3195 16.9616 45.6073 16.9616C45.922 16.9616 46.1829 17.0717 46.3807 17.2875C46.5066 17.4262 46.5875 17.638 46.6146 17.9193H44.5596Z" fill="white"/>
<path d="M48.9887 16.6112C48.8674 16.6887 48.7369 16.8433 48.593 17.0798V16.5746H48.031V19.9117H48.6515V18.1636C48.6515 17.9232 48.6874 17.7032 48.755 17.5036C48.8044 17.3731 48.8809 17.2672 48.9887 17.1941C49.0967 17.1205 49.2227 17.0838 49.3575 17.0838C49.5104 17.0838 49.6633 17.1246 49.8162 17.206L50.032 16.6804C49.8117 16.5581 49.6003 16.4973 49.389 16.4973C49.245 16.4973 49.1102 16.5338 48.9887 16.6112Z" fill="white"/>
</svg>
