<svg viewBox="0 0 400 600" fill="none" xmlns="http://www.w3.org/2000/svg">
<path d="M304.003 600H296.252V560.96C294.845 562.964 293.278 564.883 291.512 566.651L258.204 600H247.243L286.037 561.159C292.627 554.561 296.252 545.779 296.252 536.45V509.415C296.252 505.416 295.855 501.494 295.232 497.618C293.967 500.019 292.334 502.278 290.332 504.282L214.35 580.348C208.969 585.736 205.599 592.58 204.532 599.991H195.969C194.902 592.58 191.531 585.736 186.15 580.348L110.168 504.282C108.167 502.278 106.533 500.019 105.268 497.618C104.645 501.494 104.248 505.416 104.248 509.415V536.45C104.248 545.779 107.883 554.552 114.473 561.159L153.267 600H142.306L108.997 566.651C107.232 564.883 105.665 562.964 104.258 560.96V600H96.5068V560.96C95.1001 562.964 93.5329 564.883 91.7674 566.651L58.4592 600H47.4981L86.2915 561.159C92.8814 554.561 96.5068 545.789 96.5068 536.45V509.415C96.5068 505.416 96.1103 501.494 95.4872 497.618C94.2221 500.019 92.5887 502.278 90.5872 504.282L14.6054 580.348C9.22394 585.736 5.86292 592.58 4.78663 599.991H0V0H4.78663C4.5506 1.66367 4.38066 3.34625 4.38066 5.05719V44.0968C5.78739 42.0928 7.35461 40.1739 9.12009 38.4063L47.4887 0H58.4498L14.6054 43.9077C8.01548 50.5057 4.39011 59.2778 4.39011 68.6076V107.647C5.79683 105.643 7.36405 103.724 9.12953 101.957L86.2821 24.6999C92.872 18.1114 96.5068 9.3298 96.5068 0H104.258C104.258 9.3298 107.883 18.1019 114.483 24.6999L191.645 101.957C193.41 103.724 194.977 105.643 196.384 107.647V68.5982C196.384 59.2684 192.749 50.4963 186.159 43.8983L142.306 0H153.267L191.635 38.4157C193.401 40.1834 194.968 42.1023 196.375 44.1062V5.05719C196.375 3.34625 196.214 1.66367 195.969 0H204.532C204.296 1.66367 204.126 3.34625 204.126 5.05719V44.0968C205.532 42.0928 207.1 40.1739 208.865 38.4063L247.234 0H258.195L214.341 43.9077C207.751 50.5057 204.126 59.2778 204.126 68.6076V107.647C205.532 105.643 207.1 103.724 208.865 101.957L286.027 24.6999C292.617 18.1019 296.242 9.3298 296.242 0H303.994C303.994 9.3298 307.628 18.1019 314.209 24.6999L391.371 101.957C393.136 103.724 394.694 105.643 396.11 107.647V68.6076C396.11 59.2778 392.475 50.5057 385.895 43.9077L342.051 0H353.012L391.38 38.4157C393.146 40.1834 394.704 42.1023 396.12 44.1062V5.05719C396.12 3.34625 395.959 1.66367 395.714 0H400V600H395.714C394.647 592.589 391.276 585.745 385.895 580.357L309.913 504.292C307.912 502.288 306.278 500.028 305.013 497.627C304.39 501.503 303.994 505.426 303.994 509.424V536.459C303.994 545.789 307.628 554.561 314.209 561.168L353.002 600.009H342.041L308.733 566.66C306.968 564.893 305.41 562.974 303.994 560.97V600.009L304.003 600ZM288.812 477.106C285.451 470.186 281.014 463.919 275.699 458.37C275.349 458.011 275.038 457.614 274.679 457.255L269.977 452.547C269.694 458.106 267.523 463.579 263.293 467.814L214.36 516.807C207.77 523.405 204.145 532.177 204.145 541.516V580.556C205.551 578.552 207.119 576.633 208.884 574.865L284.866 498.799C290.701 492.958 292.287 484.242 288.822 477.106H288.812ZM115.663 498.799L191.645 574.865C193.41 576.633 194.977 578.552 196.384 580.556V541.507C196.384 532.177 192.749 523.405 186.159 516.797L137.226 467.804C132.997 463.569 130.825 458.096 130.542 452.538L125.84 457.245C125.481 457.605 125.17 458.002 124.821 458.37C119.505 463.9 115.077 470.177 111.707 477.096C108.233 484.223 109.828 492.939 115.663 498.781V498.799ZM89.0578 477.106C85.6873 470.186 81.2594 463.91 75.9441 458.37C75.5948 458.011 75.2832 457.614 74.9245 457.255L70.2795 452.604C69.9773 458.351 67.6171 463.711 63.5291 467.804L14.5959 516.797C8.00604 523.395 4.38066 532.167 4.38066 541.507V580.546C5.78739 578.542 7.35461 576.624 9.12009 574.856L85.102 498.79C90.9366 492.948 92.5321 484.233 89.0578 477.096V477.106ZM396.12 209.405C396.12 205.407 395.723 201.484 395.1 197.608C393.835 200.009 392.202 202.269 390.2 204.273L314.218 280.338C307.628 286.936 304.003 295.708 304.003 305.048V344.087C305.41 342.083 306.977 340.164 308.742 338.397L385.904 261.14C392.494 254.542 396.12 245.76 396.12 236.431V209.396V209.405ZM396.12 263.238V260.951C394.713 262.955 393.146 264.874 391.38 266.641L314.218 343.898C307.628 350.496 304.003 359.268 304.003 368.598V407.647C305.41 405.643 306.977 403.724 308.742 401.957L385.904 324.7C392.494 318.102 396.12 309.33 396.12 299.991V263.238ZM396.12 477.966C396.12 468.636 392.485 459.864 385.904 453.256L365.965 433.292C362.868 430.192 361.112 426.288 360.555 422.242L353.55 429.256L342.457 440.372C336.414 446.422 336.414 456.272 342.457 462.331L391.39 511.324C393.155 513.092 394.713 515.011 396.129 517.015V477.975L396.12 477.966ZM396.12 541.507C396.12 532.177 392.485 523.405 385.904 516.797L336.971 467.804C332.742 463.569 330.57 458.096 330.287 452.538L325.576 457.255C325.217 457.614 324.906 458.011 324.556 458.38C319.241 463.91 314.813 470.186 311.443 477.106C307.978 484.233 309.564 492.948 315.408 498.79L391.39 574.856C393.155 576.624 394.713 578.542 396.129 580.546V541.507H396.12ZM257.798 440.363L246.705 429.256L239.7 422.242C239.143 426.288 237.387 430.192 234.29 433.292L214.35 453.256C207.761 459.854 204.135 468.627 204.135 477.966V517.005C205.542 515.001 207.109 513.083 208.875 511.315L257.808 462.322C263.85 456.272 263.85 446.422 257.808 440.363H257.798ZM142.711 462.322L191.645 511.315C193.41 513.083 194.977 515.001 196.384 517.005V477.966C196.384 468.636 192.749 459.854 186.159 453.256L166.22 433.292C163.123 430.192 161.367 426.288 160.81 422.242L153.805 429.256L142.711 440.372C136.669 446.422 136.669 456.272 142.711 462.331V462.322ZM4.39011 236.44C4.39011 245.77 8.01548 254.542 14.6054 261.149L91.7674 338.406C93.5329 340.174 95.0906 342.093 96.5068 344.097V305.057C96.5068 295.727 92.8814 286.946 86.2915 280.348L10.3002 204.273C8.29872 202.269 6.66541 200.009 5.4003 197.608C4.77719 201.484 4.38066 205.407 4.38066 209.405V236.44H4.39011ZM80.4097 102.741L71.8278 111.334C67.2961 115.871 67.2961 123.263 71.8278 127.81L91.7674 147.774C93.5329 149.542 95.0906 151.46 96.5068 153.464V79.8752C92.551 88.2598 87.1601 96.0015 80.4097 102.751V102.741ZM104.258 79.8658V153.455C105.665 151.451 107.232 149.532 108.997 147.764L128.937 127.8C133.469 123.263 133.469 115.881 128.937 111.334L120.346 102.732C113.605 95.9826 108.204 88.2409 104.248 79.8563L104.258 79.8658ZM139.832 122.242C139.275 126.288 137.519 130.192 134.422 133.292L114.483 153.256C107.893 159.854 104.258 168.636 104.258 177.966V217.015C105.665 215.011 107.232 213.092 108.997 211.324L157.931 162.331C160.857 159.401 162.472 155.497 162.472 151.356C162.472 147.216 160.857 143.312 157.931 140.382L139.832 122.261V122.242ZM170.166 152.604C169.855 158.342 167.504 163.711 163.416 167.804L114.483 216.797C107.893 223.395 104.258 232.177 104.258 241.507V280.546C105.665 278.542 107.232 276.623 108.997 274.856L184.979 198.79C190.814 192.948 192.409 184.233 188.935 177.106C185.565 170.186 181.137 163.91 175.821 158.37C175.472 158.011 175.16 157.614 174.802 157.255L170.166 152.614V152.604ZM211.575 177.106C208.11 184.233 209.696 192.948 215.54 198.79L291.522 274.856C293.287 276.623 294.845 278.542 296.261 280.546V241.507C296.261 232.177 292.627 223.405 286.046 216.797L237.113 167.804C233.015 163.711 230.665 158.351 230.363 152.604L225.727 157.245C225.368 157.605 225.057 158.002 224.707 158.37C219.401 163.9 214.964 170.177 211.594 177.096L211.575 177.106ZM253.682 129.247L242.589 140.354C239.662 143.284 238.048 147.188 238.048 151.338C238.048 155.487 239.662 159.382 242.589 162.312L291.522 211.305C293.287 213.073 294.845 214.992 296.261 216.996V177.947C296.261 168.617 292.627 159.845 286.046 153.238L266.106 133.273C263.085 130.249 261.263 126.392 260.687 122.223L253.691 129.228L253.682 129.247ZM280.155 102.741L271.573 111.334C267.041 115.871 267.041 123.263 271.573 127.81L291.512 147.774C293.278 149.542 294.836 151.46 296.252 153.464V79.8752C292.296 88.2598 286.905 96.0015 280.155 102.751V102.741ZM305.768 83.42C305.145 82.2478 304.569 81.0568 304.003 79.8658V153.455C305.41 151.451 306.977 149.532 308.742 147.764L328.682 127.8C333.204 123.263 333.214 115.89 328.701 111.343L320.1 102.732C318.372 101.002 316.767 99.1871 315.219 97.3343C314.917 96.9751 314.615 96.6254 314.332 96.2662C312.868 94.4607 311.49 92.5985 310.196 90.6891C309.951 90.3299 309.724 89.9612 309.479 89.5926C308.214 87.6548 307.005 85.6792 305.92 83.6468C305.872 83.5618 305.825 83.4862 305.787 83.4105L305.768 83.42ZM339.577 122.233C339.02 126.278 337.264 130.182 334.167 133.283L314.228 153.247C307.638 159.845 304.012 168.627 304.012 177.956V217.005C305.419 215.001 306.986 213.083 308.752 211.315L357.685 162.322C360.612 159.391 362.226 155.487 362.226 151.347C362.226 147.207 360.612 143.303 357.685 140.372L353.361 136.043L346.582 129.256L339.577 122.242V122.233ZM369.911 152.604C369.6 158.342 367.249 163.711 363.161 167.804L314.228 216.797C307.638 223.395 304.012 232.177 304.012 241.507V280.546C305.419 278.542 306.986 276.623 308.752 274.856L384.734 198.79C390.408 193.109 392.032 184.734 388.935 177.72C388.718 177.257 388.51 176.794 388.274 176.33C387.679 175.149 387.056 173.996 386.405 172.861C385.923 172.02 385.432 171.198 384.913 170.375C384.29 169.383 383.667 168.4 382.997 167.435C382.279 166.405 381.514 165.394 380.74 164.401C380.183 163.673 379.636 162.936 379.05 162.227C377.625 160.516 376.142 158.852 374.547 157.255L369.911 152.614V152.604ZM228.805 411.334L220.223 402.741C213.482 395.992 208.082 388.25 204.135 379.866V453.455C205.542 451.451 207.109 449.532 208.875 447.764L228.814 427.8C233.346 423.263 233.346 415.871 228.814 411.324L228.805 411.334ZM171.705 427.81L191.645 447.774C193.41 449.542 194.977 451.46 196.384 453.464V379.866C192.428 388.25 187.028 395.992 180.287 402.741L171.705 411.334C167.173 415.871 167.173 423.263 171.705 427.81ZM104.258 391.218V407.638C105.665 405.634 107.232 403.715 108.997 401.947L186.159 324.69C192.749 318.092 196.384 309.32 196.384 299.981V260.941C194.977 262.945 193.41 264.864 191.645 266.632L114.483 343.889C107.893 350.487 104.258 359.259 104.258 368.589V391.209V391.218ZM11.8297 177.106C8.35536 184.233 9.95091 192.948 15.7855 198.79L91.7674 274.856C93.5329 276.623 95.0906 278.542 96.5068 280.546V241.507C96.5068 232.177 92.8814 223.405 86.2915 216.797L37.3584 167.804C33.261 163.711 30.9101 158.351 30.608 152.604L25.9724 157.245C25.6137 157.605 25.3021 158.002 24.9528 158.37C19.6375 163.9 15.2096 170.177 11.8391 177.096L11.8297 177.106ZM42.8248 140.363C39.898 143.293 38.2931 147.188 38.2931 151.338C38.2931 155.487 39.9075 159.382 42.8342 162.312L91.7674 211.305C93.5329 213.073 95.0906 214.992 96.5068 216.996V177.956C96.5068 168.627 92.8814 159.854 86.2915 153.247L66.352 133.283C63.2553 130.182 61.4992 126.278 60.9422 122.233L53.9464 129.237L48.395 134.795L42.8342 140.363H42.8248ZM104.258 344.097C105.665 342.093 107.232 340.174 108.997 338.406L186.159 261.149C192.749 254.551 196.384 245.77 196.384 236.44V209.405C196.384 205.407 195.988 201.475 195.364 197.608C194.099 200.009 192.466 202.269 190.455 204.273L114.473 280.338C107.883 286.936 104.248 295.708 104.248 305.048V344.087L104.258 344.097ZM210.055 204.273C208.053 202.269 206.42 200.019 205.155 197.608C204.532 201.475 204.135 205.407 204.135 209.405V236.44C204.135 245.77 207.77 254.542 214.35 261.149L291.512 338.406C293.278 340.174 294.836 342.093 296.252 344.097V305.057C296.252 295.727 292.617 286.955 286.037 280.348L210.055 204.282V204.273ZM296.252 368.598C296.252 359.268 292.617 350.496 286.037 343.898L208.875 266.641C207.109 264.874 205.551 262.955 204.135 260.951V299.991C204.135 309.33 207.761 318.102 214.35 324.7L291.512 401.957C293.278 403.724 294.836 405.643 296.252 407.647V368.598ZM296.252 432.149C296.252 422.819 292.617 414.047 286.037 407.439L208.875 330.182C207.109 328.415 205.551 326.496 204.135 324.492V345.08C204.135 364.779 211.801 383.307 225.708 397.24L280.155 451.753C281.675 453.275 283.11 454.873 284.498 456.489C284.677 456.697 284.857 456.915 285.036 457.132C285.111 457.217 285.187 457.312 285.262 457.397C285.442 457.614 285.631 457.832 285.81 458.058C287.358 459.968 288.812 461.925 290.181 463.947C290.342 464.184 290.493 464.43 290.653 464.675C292.759 467.87 294.637 471.198 296.261 474.638V432.158L296.252 432.149ZM104.258 432.149V474.629C105.882 471.179 107.77 467.851 109.875 464.647C110.026 464.42 110.168 464.184 110.319 463.957C111.688 461.925 113.151 459.958 114.7 458.049C114.879 457.832 115.059 457.624 115.238 457.406C115.323 457.312 115.398 457.208 115.483 457.113C115.653 456.905 115.823 456.707 115.993 456.499C117.381 454.873 118.816 453.275 120.346 451.753L174.792 397.24C188.708 383.307 196.375 364.789 196.375 345.08V324.492C194.968 326.496 193.401 328.415 191.635 330.182L114.473 407.439C107.883 414.037 104.248 422.819 104.248 432.149H104.258ZM96.5068 432.149C96.5068 422.819 92.8814 414.047 86.2915 407.439L9.12009 330.182C7.35461 328.415 5.79683 326.496 4.38066 324.492V345.08C4.38066 364.779 12.0468 383.307 25.9536 397.24L80.4003 451.753C81.9203 453.275 83.3459 454.863 84.7243 456.48C84.9131 456.697 85.0925 456.924 85.2813 457.151C85.3474 457.227 85.4135 457.312 85.4796 457.387C85.6684 457.614 85.8667 457.841 86.0461 458.068C87.5944 459.968 89.0483 461.925 90.3984 463.938C90.5589 464.184 90.7194 464.43 90.8799 464.675C92.9853 467.87 94.8546 471.188 96.4785 474.629V432.149H96.5068ZM396.12 453.464V379.875C392.164 388.26 386.773 396.002 380.032 402.751L371.431 411.362C366.918 415.909 366.918 423.282 371.45 427.819L391.39 447.783C393.155 449.551 394.713 451.47 396.129 453.474L396.12 453.464ZM396.12 324.492C394.713 326.496 393.146 328.415 391.38 330.182L314.218 407.439C307.628 414.037 304.003 422.819 304.003 432.149V474.629C305.627 471.188 307.506 467.87 309.611 464.675C309.772 464.43 309.923 464.193 310.083 463.947C311.443 461.934 312.897 459.968 314.445 458.068C314.624 457.841 314.823 457.624 315.002 457.397C315.068 457.321 315.134 457.236 315.2 457.16C315.389 456.934 315.578 456.707 315.767 456.48C317.145 454.863 318.571 453.275 320.091 451.753L374.537 397.24C388.444 383.307 396.11 364.789 396.11 345.08V324.492H396.12ZM4.39011 299.612V299.991C4.39011 309.32 8.01548 318.102 14.6054 324.7L91.7674 401.957C93.5329 403.724 95.0906 405.643 96.5068 407.647V368.608C96.5068 359.278 92.8814 350.506 86.2915 343.908L9.12009 266.641C7.35461 264.874 5.79683 262.955 4.38066 260.951V299.612H4.39011ZM4.39011 453.464C5.79683 451.46 7.36405 449.542 9.12953 447.774L29.0691 427.81C33.6008 423.273 33.6008 415.89 29.0691 411.343L20.4777 402.741C13.7368 395.992 8.33648 388.25 4.38066 379.866V453.455L4.39011 453.464ZM4.39011 500.586V517.005C5.79683 515.001 7.36405 513.083 9.12953 511.315L58.0627 462.322C60.9894 459.391 62.6039 455.487 62.6039 451.347C62.6039 447.207 60.9894 443.303 58.0627 440.372L46.9694 429.266L39.9736 422.252C39.4165 426.297 37.6605 430.201 34.5638 433.302L14.6242 453.266C8.03437 459.864 4.40899 468.636 4.40899 477.975V500.596L4.39011 500.586ZM304.003 24.5014V45.0893C304.003 64.7887 311.669 83.316 325.576 97.2493L380.023 151.763C386.764 158.512 392.164 166.254 396.11 174.638V132.158C396.11 122.828 392.475 114.056 385.895 107.449L308.733 30.1919C306.968 28.4242 305.41 26.5053 303.994 24.5014H304.003ZM204.135 132.158V174.638C204.702 173.447 205.278 172.256 205.901 171.084C205.948 170.999 206.005 170.914 206.052 170.82C207.137 168.797 208.336 166.831 209.602 164.893C209.838 164.524 210.074 164.155 210.319 163.796C210.678 163.267 211.046 162.728 211.424 162.208C211.528 162.057 211.65 161.915 211.754 161.764C212.623 160.563 213.52 159.382 214.454 158.219C214.709 157.898 214.974 157.586 215.238 157.274C215.521 156.934 215.795 156.603 216.088 156.272C217.419 154.731 218.788 153.219 220.232 151.763L266.097 105.842L274.679 97.2493C288.595 83.316 296.261 64.7982 296.261 45.0893V24.5014C294.855 26.5053 293.287 28.4242 291.522 30.1919L214.36 107.449C207.77 114.047 204.145 122.819 204.145 132.158H204.135ZM104.258 24.5014V45.0893C104.258 64.7887 111.924 83.316 125.831 97.2493L134.413 105.842L152.304 123.755L163.397 134.862L180.268 151.753C181.722 153.209 183.091 154.722 184.413 156.262C184.696 156.593 184.979 156.924 185.253 157.264C185.517 157.576 185.782 157.888 186.037 158.21C186.971 159.372 187.868 160.554 188.737 161.754C188.841 161.906 188.954 162.047 189.067 162.199C189.445 162.728 189.813 163.257 190.172 163.787C190.417 164.155 190.653 164.534 190.899 164.902C192.154 166.831 193.353 168.787 194.439 170.801C194.486 170.895 194.552 170.99 194.6 171.084C195.223 172.247 195.799 173.438 196.356 174.629V132.139C196.356 122.809 192.721 114.028 186.131 107.43L108.997 30.1919C107.232 28.4242 105.665 26.5053 104.258 24.5014ZM4.39011 132.158V174.638C4.95657 173.438 5.53248 172.247 6.15559 171.075C6.19335 170.999 6.24056 170.933 6.27832 170.857C7.37349 168.816 8.59139 166.821 9.86594 164.874C10.0925 164.524 10.3191 164.165 10.5551 163.815C10.9233 163.267 11.301 162.728 11.6881 162.189C11.773 162.066 11.8674 161.943 11.9619 161.821C12.8493 160.592 13.7651 159.391 14.7187 158.21C14.9736 157.898 15.2379 157.586 15.5023 157.274C15.7761 156.952 16.0499 156.622 16.3236 156.3C17.6548 154.75 19.0332 153.228 20.4966 151.763L37.3489 134.89C37.3489 134.89 37.3584 134.88 37.3678 134.871L42.9192 129.313L66.3614 105.842L74.9434 97.2493C87.1129 85.0553 94.5053 69.3544 96.1669 52.4152C96.4029 49.9953 96.5257 47.547 96.5257 45.0893V24.5014C95.119 26.5053 93.5517 28.4242 91.7863 30.1919L14.6054 107.449C8.01548 114.047 4.39011 122.819 4.39011 132.158Z" fill="#001512"/>
<clipPath id="clip0_30053_242850">
<rect width="400" height="600" fill="white"/>
</clipPath>
</svg>
