<svg xmlns="http://www.w3.org/2000/svg" fill="none" viewBox="0 0 208 10"><circle cx="17" cy="5.192" r="1" fill="#fff" fill-opacity=".15"/><path stroke="#fff" stroke-opacity=".15" d="M96.86 5.191h1.383m0 0c3.594 0 4.336-2.363 3.369-3.595-.968-1.233-3.257-.432-2.769 1.292m-.6 2.303c3.594 0 4.336 2.364 3.369 3.596-.968 1.232-3.257.432-2.769-1.292M21 5.192h75.86"/><circle cx="1" cy="1" r="1" fill="#fff" fill-opacity=".15" transform="matrix(-1 0 0 1 192 4.192)"/><path stroke="#fff" stroke-opacity=".15" d="M111.14 5.191h-1.383m0 0c-3.594 0-4.337-2.363-3.369-3.595.967-1.233 3.257-.432 2.768 1.292m.601 2.303c-3.594 0-4.337 2.364-3.369 3.596.967 1.232 3.257.432 2.768-1.292M187 5.192h-75.859"/></svg>
