<svg width="40" height="28" viewBox="0 0 40 28" fill="none" xmlns="http://www.w3.org/2000/svg">
<g clip-path="url(#clip0_4939_2227)">
<path d="M0 0H40V28H0V0Z" fill="#043CAE"/>
<path d="M18.7609 6.47796L19.9999 6.11507L21.2389 6.47796L20.876 5.23897L21.2389 4L19.9999 4.36288L18.7609 4L19.1238 5.23897L18.7609 6.47796Z" fill="#FFD429"/>
<path d="M18.7609 24L19.9999 23.6371L21.2389 24L20.876 22.761L21.2389 21.522L19.9999 21.8849L18.7609 21.522L19.1238 22.761L18.7609 24Z" fill="#FFD429"/>
<path d="M28.7608 14.8764L27.5218 15.2392L27.8847 14.0003L27.5218 12.7613L28.7608 13.1243L29.9998 12.7613L29.6369 14.0003L29.9998 15.2392L28.7608 14.8764Z" fill="#FFD429"/>
<path d="M10 15.2392L11.239 14.8764L12.478 15.2392L12.1151 14.0003L12.478 12.7613L11.239 13.1243L10 12.7613L10.3629 14.0003L10 15.2392Z" fill="#FFD429"/>
<path d="M27.587 10.4957L26.348 10.8586L26.7109 9.61964L26.348 8.38066L27.587 8.74355L28.826 8.38066L28.4631 9.61964L28.826 10.8586L27.587 10.4957Z" fill="#FFD429"/>
<path d="M11.1737 19.6193L12.4127 19.2564L13.6517 19.6193L13.2888 18.3803L13.6517 17.1413L12.4127 17.5042L11.1737 17.1413L11.5366 18.3803L11.1737 19.6193Z" fill="#FFD429"/>
<path d="M24.3803 7.28867L23.1413 7.65157L23.5042 6.41258L23.1413 5.17361L24.3803 5.53649L25.6193 5.17361L25.2564 6.41258L25.6193 7.65157L24.3803 7.28867Z" fill="#FFD429"/>
<path d="M14.3805 22.8264L15.6194 22.4635L16.8584 22.8264L16.4955 21.5874L16.8584 20.3484L15.6194 20.7113L14.3805 20.3484L14.7434 21.5874L14.3805 22.8264Z" fill="#FFD429"/>
<path d="M27.587 19.2564L26.348 19.6193L26.7109 18.3803L26.348 17.1413L27.587 17.5042L28.826 17.1413L28.4631 18.3803L28.826 19.6193L27.587 19.2564Z" fill="#FFD429"/>
<path d="M11.1737 10.8586L12.4127 10.4957L13.6517 10.8586L13.2888 9.61964L13.6517 8.38066L12.4127 8.74355L11.1737 8.38066L11.5366 9.61964L11.1737 10.8586Z" fill="#FFD429"/>
<path d="M24.3803 22.4635L23.1413 22.8264L23.5042 21.5874L23.1413 20.3484L24.3803 20.7113L25.6193 20.3484L25.2564 21.5874L25.6193 22.8264L24.3803 22.4635Z" fill="#FFD429"/>
<path d="M14.3805 7.65157L15.6194 7.28867L16.8584 7.65157L16.4955 6.41258L16.8584 5.17361L15.6194 5.53649L14.3805 5.17361L14.7434 6.41258L14.3805 7.65157Z" fill="#FFD429"/>
</g>
<defs>
<clipPath id="clip0_4939_2227">
<rect width="40" height="28" fill="white"/>
</clipPath>
</defs>
</svg>
