<svg xmlns="http://www.w3.org/2000/svg" width="34" height="51" viewBox="0 0 34 51" fill="none">
  <path fill-rule="evenodd" clip-rule="evenodd" d="M13.5363 48.6341L13.5364 48.6261C13.5569 46.8689 13.6109 45.1043 13.6976 43.3375C9.26245 45.8004 4.81593 46.7015 1.94444 44.5387C-4.78947 39.4667 10.1281 31.2754 13.7846 29.3463C13.6451 30.3163 13.5148 31.2896 13.394 32.2654C7.0463 35.8106 2.91389 39.9851 5.55381 41.2747C7.23256 42.0948 10.5483 40.846 13.9979 38.7165C14.3778 34.0173 14.9825 29.3332 15.794 24.7592C8.06001 27.5027 5.65916 24.2725 8.35689 19.719C10.0557 16.8515 14.7585 12.267 19.5938 8.88161C20.1966 6.92246 20.8404 5.01279 21.5231 3.16241L21.5236 3.16106C21.8705 2.24266 22.2276 1.34781 22.5948 0.476532L22.6237 0.408097L22.6924 0.376939C23.6038 -0.0363345 24.4499 -0.0972001 25.1471 0.132885C25.846 0.363517 26.3727 0.879435 26.6527 1.5745L26.6857 1.65642L26.6429 1.73385C25.887 3.09901 25.1774 4.50153 24.5139 5.93228C27.6464 4.41923 30.3801 3.93338 31.8 5.40372C36.0143 9.76751 26.3722 16.2615 24.6659 16.5312C24.6659 16.5312 24.1212 16.373 23.7506 16.0109C23.38 15.6488 23.5294 15.1177 23.5294 15.1177C25.4875 14.1608 28.8163 11.8072 28.8163 9.82079C28.8163 7.59225 25.8978 8.61174 22.4778 10.7799C21.4689 13.4428 20.6084 16.1641 19.8957 18.8909C30.394 15.191 29.1081 21.6576 28.8446 22.9827C28.8224 23.0943 28.8074 23.1697 28.8074 23.1991C28.8074 23.1991 29.96 22.6887 32.7337 22.1883C32.7337 22.1883 33.6405 22.8269 33.6405 24.1697C33.6405 25.5124 32.7337 26.5829 32.7337 26.5829C31.4959 26.6377 29.9189 26.7744 28.154 27.0827C27.0107 31.6254 22.5187 37.0967 17.3785 40.9397C17.5295 43.9493 17.9231 46.7164 18.5569 49.1271L18.5777 49.2064L18.5329 49.2755C18.1152 49.9198 17.1663 50.1911 16.219 50.1181C15.2587 50.0442 14.2224 49.6145 13.5757 48.7591L13.5424 48.7151L13.5363 48.6341ZM17.3298 36.419C21.1303 33.524 24.4864 30.0003 25.2604 27.538C23.2066 28.0255 21.1281 28.7121 19.1224 29.5225C19.2446 28.5463 19.3871 27.5609 19.5499 26.5691C21.661 25.6412 23.7882 24.7984 25.8403 24.0743C26.3289 22.3962 26.8852 19.3145 20.5796 22.623C19.9762 22.9397 19.3936 23.2298 18.8318 23.4947C18.6082 24.6058 18.4093 25.7129 18.235 26.8123C17.7108 30.1192 17.4098 33.3542 17.3298 36.419ZM16.6824 20.185C17.133 18.0529 17.6288 15.9528 18.1681 13.8948C12.494 18.4663 8.17553 23.8194 16.2182 20.3947C16.3748 20.3232 16.5295 20.2533 16.6824 20.185Z" fill="url(#paint0_linear_31203_3448)"/>
  <defs>
    <linearGradient id="paint0_linear_31203_3448" x1="3.93036" y1="16.5862" x2="32.62" y2="21.069" gradientUnits="userSpaceOnUse">
      <stop offset="0.0403444" stop-color="#BC9856"/>
      <stop offset="0.394326" stop-color="#E8C374"/>
      <stop offset="0.510888" stop-color="#F0D182"/>
      <stop offset="0.604249" stop-color="#E8C375"/>
      <stop offset="0.983605" stop-color="#BA9655"/>
    </linearGradient>
  </defs>
</svg>
