<svg width="44" height="25" viewBox="0 0 44 25" fill="none" xmlns="http://www.w3.org/2000/svg">
<path d="M43.5017 19.0609C42.4249 19.0609 41.3481 19.0609 40.2553 19.0609C40.1365 18.4868 40.0091 17.9253 39.9085 17.359C39.8668 17.124 39.792 17.0328 39.5311 17.0362C38.2294 17.053 36.9273 17.0489 35.6254 17.0385C35.4283 17.0369 35.35 17.1024 35.29 17.2829C35.1107 17.8226 34.9146 18.3568 34.7139 18.8888C34.6867 18.9611 34.5964 19.0602 34.5346 19.0607C33.3611 19.071 32.1876 19.0683 30.9803 19.0683C31.2003 18.5354 31.4087 18.0267 31.6201 17.5193C33.1332 13.8893 34.6468 10.2595 36.1603 6.62968C36.4881 5.84351 36.9795 5.5143 37.8248 5.51425C38.7669 5.51418 39.7089 5.51423 40.6751 5.51423C40.7693 5.95679 40.8641 6.39286 40.9548 6.82982C41.6994 10.4171 42.4422 14.0047 43.1885 17.5916C43.2841 18.0511 43.3969 18.5069 43.5017 18.9644C43.5017 18.9966 43.5017 19.0287 43.5017 19.0609ZM39.2528 14.247C38.9068 12.5789 38.5654 10.9333 38.2241 9.28767C38.2102 9.28492 38.1962 9.28218 38.1823 9.27943C37.5875 10.9292 36.9928 12.579 36.3914 14.247C37.3627 14.247 38.2927 14.247 39.2528 14.247Z" fill="white"/>
<path d="M29.3588 5.273C29.7872 5.35299 30.2189 5.41876 30.6431 5.51716C31.0302 5.60695 31.4092 5.7321 31.8207 5.84993C31.6133 6.82504 31.4109 7.77677 31.2128 8.70797C30.6701 8.5479 30.1513 8.3636 29.618 8.24524C28.8886 8.08335 28.1413 8.02166 27.4116 8.22612C27.1149 8.30924 26.8147 8.46884 26.5812 8.67004C26.1806 9.01514 26.1752 9.51194 26.5578 9.87426C26.8216 10.1241 27.1343 10.3292 27.4468 10.5181C28.1571 10.9477 28.9029 11.3212 29.5932 11.78C30.4062 12.3204 30.9992 13.0633 31.1237 14.0677C31.3439 15.8443 30.6905 17.2437 29.2065 18.2337C28.2733 18.8562 27.2172 19.1343 26.1168 19.2372C24.5804 19.381 23.0743 19.2079 21.6062 18.723C21.5078 18.6905 21.412 18.6499 21.316 18.6104C21.2874 18.5986 21.2625 18.5777 21.2186 18.5502C21.426 17.5736 21.6337 16.5956 21.8472 15.5902C22.0974 15.7 22.3324 15.8102 22.5725 15.9074C23.7194 16.3722 24.9039 16.5847 26.1315 16.3535C26.4509 16.2933 26.7766 16.1515 27.0473 15.969C27.6347 15.573 27.6911 14.8289 27.1562 14.3637C26.8046 14.058 26.382 13.8322 25.9814 13.5868C25.3558 13.2036 24.6911 12.8769 24.099 12.448C23.34 11.8982 22.7904 11.165 22.6862 10.1907C22.5302 8.73176 23.0685 7.54715 24.1822 6.62668C25.1512 5.8258 26.3016 5.47037 27.5273 5.3211C27.5954 5.31281 27.6617 5.28938 27.7288 5.27299C28.2721 5.273 28.8155 5.273 29.3588 5.273Z" fill="white"/>
<path d="M16.7342 5.52527C16.5518 5.96656 16.3791 6.38732 16.2041 6.80709C14.5333 10.8151 12.8604 14.8223 11.1964 18.8332C11.1171 19.0243 11.0201 19.0745 10.8274 19.0729C9.77291 19.0641 8.71814 19.0606 7.66376 19.0752C7.44021 19.0783 7.36735 18.9995 7.31588 18.7978C6.42185 15.2945 5.51292 11.795 4.62905 8.28906C4.46689 7.64586 4.14228 7.20658 3.53347 6.93698C2.55753 6.50483 1.54449 6.20125 0.51114 5.9545C0.46541 5.94359 0.419922 5.93165 0.376953 5.92086C0.382112 5.51426 0.382112 5.51424 0.766677 5.51423C2.61222 5.51423 4.45775 5.51382 6.30332 5.51442C7.17863 5.5147 7.81051 6.02603 7.97602 6.89728C8.44452 9.36373 8.90306 11.8321 9.36583 14.2997C9.38607 14.4076 9.40913 14.5149 9.43981 14.6669C9.48763 14.5764 9.52107 14.5256 9.54286 14.4702C10.6891 11.5548 11.8357 8.63956 12.9761 5.72186C13.0384 5.56259 13.1151 5.50856 13.2861 5.50993C14.3567 5.51846 15.4273 5.51406 16.4978 5.51465C16.567 5.51469 16.6362 5.5207 16.7342 5.52527Z" fill="white"/>
<path d="M15.3366 19.0687C16.3007 14.5378 17.2581 10.0388 18.2178 5.52871C19.3852 5.52871 20.5388 5.52871 21.7146 5.52871C21.5691 6.21562 21.4267 6.88941 21.2835 7.56299C20.4913 11.2882 19.6961 15.0129 18.9126 18.74C18.8582 18.9989 18.7669 19.0812 18.4996 19.076C17.5413 19.0574 16.5824 19.0687 15.6238 19.0687C15.5378 19.0687 15.4518 19.0687 15.3366 19.0687Z" fill="white"/>
</svg>
