<svg xmlns="http://www.w3.org/2000/svg"><symbol id="account-details" xmlns="http://www.w3.org/2000/svg" viewBox="0 0 16 17"><path d="M7.9 8.207c1.057 0 1.973-.38 2.721-1.129a3.73 3.73 0 001.128-2.725c0-1.058-.38-1.975-1.128-2.724A3.723 3.723 0 007.9.5C6.842.5 5.927.88 5.178 1.629a3.731 3.731 0 00-1.127 2.724 3.73 3.73 0 001.127 2.725A3.723 3.723 0 007.9 8.208zm6.735 4.596a9.523 9.523 0 00-.13-1.01 7.972 7.972 0 00-.248-1.017 5.029 5.029 0 00-.417-.948 3.577 3.577 0 00-.63-.821 2.775 2.775 0 00-.904-.57 3.121 3.121 0 00-1.154-.208c-.163 0-.32.067-.625.265a84.85 84.85 0 01-.652.421c-.21.134-.493.259-.843.372-.342.11-.69.167-1.032.167-.342 0-.69-.056-1.031-.167a3.724 3.724 0 01-.843-.372 89.075 89.075 0 01-.652-.42c-.305-.2-.462-.266-.626-.266-.415 0-.803.07-1.154.209-.351.14-.655.33-.904.569a3.576 3.576 0 00-.629.82 5.034 5.034 0 00-.417.949 7.95 7.95 0 00-.249 1.016 9.492 9.492 0 00-.13 1.011c-.02.307-.031.624-.031.945 0 .836.265 1.512.788 2.01.517.492 1.2.742 2.031.742h7.695c.831 0 1.514-.25 2.031-.742.523-.498.788-1.174.788-2.01 0-.322-.01-.64-.032-.945z"/></symbol><symbol id="add-circle-fill" xmlns="http://www.w3.org/2000/svg" viewBox="0 0 20 20"><path d="M10 20C4.477 20 0 15.523 0 10S4.477 0 10 0s10 4.477 10 10-4.477 10-10 10zM9 8.5a.5.5 0 01-.5.5H6a1 1 0 000 2h2.5a.5.5 0 01.5.5V14a1 1 0 102 0v-2.5a.5.5 0 01.5-.5H14a1 1 0 100-2h-2.5a.5.5 0 01-.5-.5V6a1 1 0 10-2 0v2.5z"/></symbol><symbol id="add-circle-outline" viewBox="0 0 24 24" xmlns="http://www.w3.org/2000/svg"><path fill-rule="evenodd" clip-rule="evenodd" d="M12 20a8 8 0 100-16 8 8 0 000 16zm0 2c5.523 0 10-4.477 10-10S17.523 2 12 2 2 6.477 2 12s4.477 10 10 10z"/><path d="M13 8h-2v3H8v2h3v3h2v-3h3v-2h-3V8z"/></symbol><symbol id="american-football" xmlns="http://www.w3.org/2000/svg" viewBox="0 0 21 20"><g clip-path="url(#a)"><path d="M15.707 2.183L14.273.979c.936-.133 1.766-.12 2.436.01l-1.002 1.194zM5.808 5.808a14.313 14.313 0 015.302-3.922l2.844 2.386-2.235 2.664-.456-.383a1.25 1.25 0 00-1.76.154l-.147.175a1.25 1.25 0 00.154 1.76l.456.383-.267.318-.456-.382a1.25 1.25 0 00-1.76.154l-.147.175a1.25 1.25 0 00.154 1.76l.455.383-1.966 2.344L2.98 11.26a14.28 14.28 0 012.828-5.453zM4.225 15.866l-1.268 1.512c-.29-.76-.457-1.77-.437-2.943l1.705 1.431zm2.09 1.754l1.708 1.433c-1.155.224-2.18.235-2.978.08l1.27-1.513zm9.63-3.305a14.296 14.296 0 01-4.877 3.732l-3-2.517 1.967-2.344.455.382a1.25 1.25 0 001.761-.154l.147-.174a1.25 1.25 0 00-.154-1.761l-.455-.382.266-.318.456.382a1.25 1.25 0 001.76-.154l.147-.175a1.25 1.25 0 00-.154-1.76l-.455-.383 2.235-2.663 2.842 2.385a14.298 14.298 0 01-2.94 5.904zm1.852-10.379l1-1.19c.242.636.4 1.45.432 2.392l-1.432-1.202z" stroke-width="1.5"/></g></symbol><symbol id="arrow-back-auth" xmlns="http://www.w3.org/2000/svg" viewBox="0 0 24 24"><path d="M11.854 11.442l-.584.602 5.642 5.572a1.982 1.982 0 01-2.804 2.803L7.09 13.402a1.983 1.983 0 010-2.804l7.018-7.017a1.983 1.983 0 012.803 2.803l-5.057 5.058z"/></symbol><symbol id="age-outline" viewBox="0 0 34 34" xmlns="http://www.w3.org/2000/svg"><path fill-rule="evenodd" clip-rule="evenodd" d="M17 32.3c8.201 0 14.85-6.85 14.85-15.3 0-8.45-6.649-15.3-14.85-15.3S2.15 8.55 2.15 17c0 8.45 6.649 15.3 14.85 15.3zm0 1.7c9.113 0 16.5-7.611 16.5-17S26.113 0 17 0 .5 7.611.5 17 7.887 34 17 34z"/><path d="M10.332 12.036H8.367c-.023.606-.853 1.639-2.092 1.639v1.667c1.065 0 1.758-.407 1.965-.737h.09v7.36h2.002v-9.93zM16.228 22.1c2.168 0 3.737-1.197 3.747-2.807-.01-1.24-.933-2.254-2.093-2.453v-.068c1.009-.213 1.725-1.115 1.734-2.2-.009-1.537-1.442-2.672-3.388-2.672-1.96 0-3.392 1.134-3.383 2.671-.01 1.086.707 1.988 1.734 2.201v.068c-1.178.199-2.102 1.212-2.092 2.453-.01 1.61 1.555 2.807 3.741 2.807zm0-1.542c-.975 0-1.63-.586-1.62-1.43-.01-.858.678-1.478 1.62-1.478.929 0 1.612.62 1.621 1.478-.009.844-.66 1.43-1.62 1.43zm0-4.435c-.82 0-1.404-.548-1.394-1.334-.01-.77.565-1.309 1.394-1.309.816 0 1.386.539 1.395 1.31-.01.785-.589 1.333-1.395 1.333zM27.725 16.2h-2.318v-2.302h-1.579V16.2H21.51v1.6h2.318v2.303h1.579V17.8h2.318v-1.6z"/></symbol><symbol id="arrow-down" xmlns="http://www.w3.org/2000/svg" viewBox="0 0 16 16"><path d="M7.628 8.097l.402.39 3.714-3.762a1.322 1.322 0 011.869 1.87l-4.679 4.678a1.322 1.322 0 01-1.869 0L2.387 6.594a1.322 1.322 0 011.869-1.869l3.372 3.372z"/></symbol><symbol id="arrow-footer" xmlns="http://www.w3.org/2000/svg" viewBox="0 0 16 16"><path d="M7.628 8.098l.402.388 3.714-3.76a1.322 1.322 0 011.869 1.869l-4.679 4.678a1.322 1.322 0 01-1.869 0L2.387 6.595a1.322 1.322 0 011.869-1.87l3.372 3.373z"/></symbol><symbol id="arrow-forward" viewBox="0 0 24 25" xmlns="http://www.w3.org/2000/svg"><path d="M6.49 20.567l1.77 1.77 9.9-9.9-9.9-9.9-1.77 1.77 8.13 8.13-8.13 8.13z"/></symbol><symbol id="arrow-up" xmlns="http://www.w3.org/2000/svg" viewBox="0 0 12 16"><path d="M6.723 2.816l.065 1.634v10.742a.24.24 0 01-.239.239h-.956a.24.24 0 01-.239-.24V4.452l.066-1.635L1.975 6.43a.239.239 0 01-.338.008L.945 5.78a.239.239 0 01-.009-.338L5.38.776a.956.956 0 011.385 0l4.442 4.665a.24.24 0 01-.008.338l-.692.66a.24.24 0 01-.338-.009L6.723 2.816z" fill-rule="evenodd" clip-rule="evenodd"/></symbol><symbol id="arrow-left" xmlns="http://www.w3.org/2000/svg" viewBox="0 0 12 13"><path d="M5.927 6.22l-.292.302 2.82 2.786a.991.991 0 01-1.401 1.402L3.545 7.2a.991.991 0 010-1.4l3.509-3.51a.991.991 0 011.402 1.402l-2.53 2.529z"/></symbol><symbol id="arrow" xmlns="http://www.w3.org/2000/svg" viewBox="0 0 12 13"><path d="M6.073 6.78l.292-.302-2.82-2.786a.991.991 0 011.4-1.402l3.51 3.51a.991.991 0 010 1.4l-3.51 3.51a.991.991 0 11-1.4-1.402l2.528-2.529z"/></symbol><symbol id="baseball" xmlns="http://www.w3.org/2000/svg" viewBox="0 0 21 20"><path d="M13.366 13.667a9.13 9.13 0 002.255 3.11c.097.093.2.176.302.258l.12.097a8.934 8.934 0 01-5.732 2.035 8.928 8.928 0 01-5.714-2.035 5.6 5.6 0 00.41-.348 9.105 9.105 0 002.248-3.117h.47a.611.611 0 000-1.222h-.042a9.282 9.282 0 00.318-1.833h.342a.611.611 0 000-1.222h-.342a8.787 8.787 0 00-.318-1.834h.043a.611.611 0 100-1.222h-.47a8.836 8.836 0 00-2.25-3.061L4.578 2.9A8.776 8.776 0 0110.311.834a8.807 8.807 0 015.714 2.09l-.115.098a4.353 4.353 0 00-.289.257 8.873 8.873 0 00-2.255 3.055h-.47a.611.611 0 000 1.222h.043a9.215 9.215 0 00-.318 1.834h-.336a.611.611 0 100 1.222h.336c.044.62.15 1.234.318 1.833h-.043a.611.611 0 000 1.222h.47z"/><path d="M5.875 6.335A7.651 7.651 0 004.2 4.172a8.375 8.375 0 00-.495-.434 8.995 8.995 0 00-2.56 6.264 9.166 9.166 0 002.536 6.294 6.02 6.02 0 00.476-.41 7.945 7.945 0 001.718-2.218.611.611 0 010-1.222H6.4c.193-.595.314-1.21.36-1.833h-.268a.611.611 0 010-1.223h.269a7.675 7.675 0 00-.36-1.833h-.526a.611.611 0 110-1.222zm11.067-2.597c-.164.13-.321.269-.47.415a7.664 7.664 0 00-1.718 2.182.611.611 0 110 1.222h-.532a7.671 7.671 0 00-.36 1.833h.275a.611.611 0 010 1.223h-.275c.046.623.167 1.239.36 1.833h.526a.611.611 0 010 1.222 8.067 8.067 0 001.705 2.212c.159.147.324.281.489.416a9.166 9.166 0 002.536-6.294 8.965 8.965 0 00-2.536-6.264z"/></symbol><symbol id="bet" viewBox="0 0 16 17" xmlns="http://www.w3.org/2000/svg"><path fill-rule="evenodd" clip-rule="evenodd" d="M11.352 2.068L10.14.856a1.218 1.218 0 00-1.72 0L.356 8.92a1.218 1.218 0 000 1.72l1.212 1.212c.362.363.897.46 1.363.248a1.1 1.1 0 011.228.222 1.1 1.1 0 01.222 1.228 1.206 1.206 0 00.247 1.363l1.232 1.231a1.218 1.218 0 001.72 0l8.064-8.064a1.218 1.218 0 000-1.72l-1.23-1.232a1.206 1.206 0 00-1.364-.247 1.1 1.1 0 01-1.228-.222A1.1 1.1 0 0111.6 3.43a1.206 1.206 0 00-.248-1.363zM8 10.152a1.652 1.652 0 100-3.304 1.652 1.652 0 000 3.304z"/></symbol><symbol id="bonus-crab" xmlns="http://www.w3.org/2000/svg" viewBox="0 0 20 18"><path d="M18.04 4.29c-.349.483-.684.951-1.026 1.416-.157.213-.312.43-.492.623-.281.3-.553.336-.927.166-.149-.068-.304-.124-.45-.197-.181-.09-.3-.058-.396.129-.176.344-.374.677-.552 1.02-.236.453-.654.614-1.135.43-.254-.098-.51-.196-.77-.278-.07-.021-.181-.009-.235.035-.707.572-1.391 1.174-1.84 1.973a3.335 3.335 0 00-.407 1.135c-.093.659.14.838.701 1 .521.15.984-.011 1.384-.364.077-.067.15-.14.237-.193.317-.196.596-.102.743.275.12-.116.236-.217.338-.33.44-.478.907-.922 1.514-1.192a1.73 1.73 0 01.228-.09c.33-.093.552.048.609.381.04.236.15.31.339.167.177-.133.318-.326.441-.514.144-.22.23-.478.377-.696.331-.498.82-.505 1.196-.039.235.293.344.63.367.996.03.477-.03.939-.201 1.394-.43 1.147-1.227 2.006-2.167 2.752-1.254.997-2.703 1.628-4.208 2.145-1.24.425-2.507.728-3.818.816-1.542.105-3.02-.13-4.362-.93-.862-.515-1.635-1.136-2.139-2.03-.47-.833-.683-1.74-.742-2.681-.088-1.404.077-2.772.668-4.07a10.123 10.123 0 012.079-2.975 13.91 13.91 0 014.643-3.103C9.705.784 11.442.39 13.247.399a11.26 11.26 0 014.654 1.005c.437.199.853.45 1.132.851.142.206.27.452.305.694.053.363.041.74.012 1.109-.022.277-.199.472-.493.525-.293.053-.56.015-.756-.238-.011-.015-.028-.027-.06-.055z"/></symbol><symbol id="basketball" xmlns="http://www.w3.org/2000/svg" viewBox="0 0 21 20"><path d="M8.637 1.04c.023.274.143 1.045.742 1.897a10.054 10.054 0 016.984-.05A9.152 9.152 0 0010.57.833a9.23 9.23 0 00-1.934.207zm-.883.236c.057.423.232 1.192.777 2.027-.855.417-1.662.959-2.392 1.627L4.413 3.204a9.103 9.103 0 013.34-1.928zm-3.98 2.567L5.498 5.57a10.117 10.117 0 00-1.626 2.392 4.984 4.984 0 00-2.027-.777 9.1 9.1 0 011.927-3.34zm-.318 11.948A9.179 9.179 0 011.61 8.067c.274.023 1.045.143 1.897.742a10.05 10.05 0 00-.05 6.982zm1.935 1.778a8.944 8.944 0 00.318.208l.061.038a8.504 8.504 0 00.915.495l.028.013a9.152 9.152 0 002.055.668c-1.133-1.146-1.763-2.706-2.835-6.399-.43-1.481-1.05-2.477-1.692-3.148a9.139 9.139 0 001.137 8.116.173.173 0 01.007.005l.004.002.002.002zm14.17-9.371c-1.145-1.133-2.705-1.763-6.398-2.834-1.482-.43-2.477-1.051-3.149-1.693a9.141 9.141 0 018.117 1.138l.004.006.002.002c.068.1.133.2.197.3l.024.039.024.038a9.416 9.416 0 01.513.952c.305.66.527 1.35.667 2.052zm-9.165 10.967a9.166 9.166 0 005.548-1.73l.028-.02.065-.048a9.75 9.75 0 00.252-.195l.025-.02a8.34 8.34 0 00.324-.273l.042-.037.05-.043L6.14 6.21a9.17 9.17 0 00-1.537 2.32c.838.765 1.661 1.955 2.2 3.811 1.391 4.798 1.983 5.701 3.593 6.825zm7.317-3.408l-.055.067a9.822 9.822 0 01-.207.242l-.036.04-.046.053L6.78 5.57A9.188 9.188 0 019.1 4.033c.764.838 1.954 1.661 3.81 2.2 4.799 1.391 5.702 1.983 6.826 3.592a9.167 9.167 0 01-1.487 5.196l-.028.043-.015.022a7.68 7.68 0 01-.199.285l-.012.017-.058.08a8.779 8.779 0 01-.224.289z"/></symbol><symbol id="bonus" viewBox="0 0 16 16" xmlns="http://www.w3.org/2000/svg"><path d="M14.377 3.349h-1.068c.141-.223.234-.474.26-.739A1.886 1.886 0 0012.451.667a1.872 1.872 0 00-2.044.33L9.059 2.22a1.43 1.43 0 00-2.12.002L5.59.996A1.873 1.873 0 003.546.667 1.886 1.886 0 002.427 2.61c.027.265.12.516.26.739H1.624a.957.957 0 00-.956.958v1.437c0 .265.214.48.478.48h13.71a.479.479 0 00.478-.48V4.307a.957.957 0 00-.956-.958zm-7.812-.16v.16h-2.25a.945.945 0 01-.397-1.799.92.92 0 011.03.156l1.618 1.47v.013zm6.055-.706c-.035.498-.484.866-.983.866H9.435v-.16-.017l1.592-1.446c.245-.222.588-.326.905-.231a.932.932 0 01.688.988zM1.623 7.182v7.027c0 .529.428.958.957.958h4.463V7.182h-5.42zM8.956 7.182v7.985h4.464a.957.957 0 00.957-.958V7.182h-5.42z"/></symbol><symbol id="bottom-arrow" viewBox="0 0 16 16" xmlns="http://www.w3.org/2000/svg"><path d="M8 0a1.6 1.6 0 00-1.6 1.6v8.547L3.008 6.755A1.762 1.762 0 00.516 9.247l6.238 6.237a1.762 1.762 0 002.492 0l6.238-6.237a1.762 1.762 0 10-2.492-2.492L9.6 10.19V1.6A1.6 1.6 0 008 0z"/></symbol><symbol id="burger" viewBox="0 0 24 25" xmlns="http://www.w3.org/2000/svg"><path fill-rule="evenodd" clip-rule="evenodd" d="M4.414 13.5l3.293 3.293-1.414 1.414L.586 12.5l5.707-5.707 1.414 1.414L4.414 11.5H22v2H4.414zM10 5h12v2H10V5zM10 18h12v2H10v-2z"/></symbol><symbol id="card-collections" xmlns="http://www.w3.org/2000/svg" viewBox="0 0 21 19"><path d="M18.568 2.349l-1.958-.275c.067.233.117.483.117.742v12.966a2.662 2.662 0 01-2.667 2.659h-.467l2.659.375a1.84 1.84 0 002.075-1.559l1.808-12.841c.141-1-.559-1.925-1.559-2.067h-.008z"/><path d="M12.41 2.674l1.808 12.841a2.66 2.66 0 01-.617 2.092h.459a1.826 1.826 0 001.833-1.825V2.807A1.832 1.832 0 0014.06.982h-2.625c.508.409.875 1 .975 1.692z"/><path d="M11.585 2.79c-.142-1-1.067-1.7-2.075-1.558L1.585 2.35A1.831 1.831 0 00.018 4.416l1.809 12.841c.141 1 1.066 1.7 2.075 1.558l7.924-1.108c1-.142 1.7-1.067 1.559-2.067L11.576 2.8l.009-.008zm-1.567 5.667L8.993 9.774a.925.925 0 00-.133.767l.508 1.583c.075.233-.05.35-.283.266l-1.567-.558c-.225-.083-.575-.033-.775.108l-1.358.976c-.2.141-.35.058-.342-.184l.05-1.666c0-.242-.15-.559-.341-.7L3.41 9.382c-.2-.141-.167-.316.067-.383l1.6-.467a.92.92 0 00.558-.541l.525-1.584c.075-.233.25-.258.383-.05l.942 1.375c.133.2.45.367.692.367h1.666c.242.008.317.167.175.358z"/></symbol><symbol id="caret-down" xmlns="http://www.w3.org/2000/svg" viewBox="0 0 12 8"><path d="M5.628 4.097l.402.389L9.744.725a1.322 1.322 0 011.869 1.869L6.934 7.272a1.322 1.322 0 01-1.869 0L.387 2.594A1.322 1.322 0 012.256.724l3.372 3.373z"/></symbol><symbol id="caret-right" viewBox="0 0 20 20" xmlns="http://www.w3.org/2000/svg"><path d="M13.505 9.505a.7.7 0 010 .99l-4.31 4.31A.7.7 0 018 14.31V5.69a.7.7 0 011.195-.495l4.31 4.31z"/></symbol><symbol id="cashier" xmlns="http://www.w3.org/2000/svg" viewBox="0 0 16 17"><path d="M15.807 5.06l-7.5-3.828a.763.763 0 00-.617 0L.19 5.06a.344.344 0 00-.152.464l.291.573c.085.17.312.306.505.306H15.17a.619.619 0 00.505-.306l.29-.573a.35.35 0 00-.158-.464zM1.782 13.534a.498.498 0 00-.501.493c0 .27.223.494.501.494h12.434c.274 0 .5-.22.5-.494a.498.498 0 00-.5-.493h-.413l-.329-5.591c0-.18.129-.327.288-.327.16 0 .288-.126.288-.283 0-.157-.15-.283-.332-.283h-2.215c-.182 0-.331.126-.331.283 0 .157.128.283.287.283.16 0 .288.147.288.327l-.328 5.591H9.194l-.328-5.591c0-.18.129-.327.288-.327a.285.285 0 00.288-.283c0-.157-.15-.283-.332-.283H6.895c-.183 0-.332.126-.332.283 0 .157.129.283.288.283.16 0 .288.147.288.327l-.328 5.591H4.586l-.328-5.591c0-.18.128-.327.287-.327.16 0 .288-.126.288-.283 0-.157-.149-.283-.332-.283H2.283c-.183 0-.332.126-.332.283 0 .157.13.283.288.283.16 0 .288.147.288.327l-.332 5.591h-.413zm13.385 1.313H.834a.498.498 0 00-.501.493c0 .27.223.493.5.493h14.334c.274 0 .501-.22.501-.493a.5.5 0 00-.501-.493z"/></symbol><symbol id="caret-left" viewBox="0 0 20 20" xmlns="http://www.w3.org/2000/svg"><path d="M7.163 10.495a.7.7 0 010-.99l4.31-4.31a.7.7 0 011.195.495v8.62a.7.7 0 01-1.195.495l-4.31-4.31z"/></symbol><symbol id="casino" xmlns="http://www.w3.org/2000/svg" viewBox="0 0 19 21"><path fill-rule="evenodd" d="M15.846 5.23c.334-.332.78-.528 1.252-.548a1.844 1.844 0 011.756 1.12 1.856 1.856 0 01-.779 2.33c-.18.105-.316.287-.316.496v2.065a.991.991 0 01-.995.987H14.93a.494.494 0 00-.494.494v6.61a1.597 1.597 0 01-1.601 1.599H2.44a1.583 1.583 0 01-1.6-1.598V1.98A1.597 1.597 0 012.44.383h10.395a1.603 1.603 0 011.601 1.598V9.74c0 .272.221.493.494.493h1.134a.494.494 0 00.494-.493V8.63c0-.21-.137-.392-.319-.497a1.88 1.88 0 01-.942-1.653c.02-.47.216-.916.55-1.25zM6.744 9.864a.494.494 0 00-.494.493v2.297c0 .273.22.494.494.494h1.554a.494.494 0 00.494-.494v-2.297a.494.494 0 00-.494-.493H6.744zm-3.803 0a.494.494 0 00-.494.493v2.297c0 .273.22.494.494.494h1.554a.494.494 0 00.494-.494v-2.297a.494.494 0 00-.494-.493H2.941zm9.16-1.855a.494.494 0 00.494-.493V2.798a.494.494 0 00-.494-.494H3.154a.494.494 0 00-.494.494v4.717c0 .272.221.493.494.493h8.947zm0 5.139a.494.494 0 00.494-.494v-2.297a.494.494 0 00-.494-.493h-1.555a.494.494 0 00-.493.493v2.297c0 .273.22.494.493.494h1.555zm-9.16 2.532a.417.417 0 000 .834h9.237a.417.417 0 100-.834H2.941z" clip-rule="evenodd"/></symbol><symbol id="chat-vector" viewBox="0 0 40 40" xmlns="http://www.w3.org/2000/svg"><path d="M10.582 37.648L0 40l2.352-10.582A19.912 19.912 0 010 20C0 8.954 8.954 0 20 0s20 8.954 20 20-8.954 20-20 20a19.912 19.912 0 01-9.418-2.352zm.58-4.226l1.306.7A15.91 15.91 0 0020 36 16 16 0 104 20c0 2.668.65 5.236 1.88 7.532l.698 1.306-1.31 5.894 5.894-1.31zM10 20h4a6 6 0 0012 0h4a10 10 0 11-20 0z"/></symbol><symbol id="challenges" xmlns="http://www.w3.org/2000/svg" viewBox="0 0 16 21"><path d="M9.377 6.868l1.453.212c.21.03.257.177.107.326L9.885 8.433a.834.834 0 00-.212.654l.248 1.448c.037.212-.088.303-.277.203l-1.3-.684a.829.829 0 00-.686 0l-1.3.684c-.189.1-.314.008-.278-.203l.248-1.448a.832.832 0 00-.212-.654L5.065 7.406c-.153-.148-.105-.296.107-.326l1.451-.212a.832.832 0 00.556-.404l.65-1.318c.094-.192.248-.192.343 0l.65 1.318a.832.832 0 00.555.404z"/><path fill-rule="evenodd" d="M14.926 8.681c-.163-.373-.163-.981 0-1.355l.509-1.163a.854.854 0 00-.341-1.05l-1.093-.64c-.35-.205-.708-.699-.794-1.095l-.27-1.24a.852.852 0 00-.893-.65l-1.26.126c-.404.04-.983-.148-1.286-.419L8.552.351a.852.852 0 00-1.103 0l-.946.844c-.303.27-.882.459-1.285.419l-1.261-.126a.853.853 0 00-.892.65l-.27 1.24c-.087.397-.444.89-.795 1.095l-1.093.64a.855.855 0 00-.341 1.052l.508 1.16c.163.373.163.982 0 1.355L.565 9.843a.854.854 0 00.342 1.05l1.093.64c.35.206.708.699.795 1.095l.27 1.24c.087.398.488.69.892.65l1.26-.127c.404-.04.982.149 1.285.419l.947.843c.303.271.8.271 1.102 0l.946-.842c.303-.27.881-.46 1.286-.42l1.26.126a.853.853 0 00.893-.65l.27-1.238c.085-.397.444-.89.793-1.095l1.094-.641a.856.856 0 00.341-1.051l-.508-1.161zM8 12.587a4.58 4.58 0 01-4.577-4.584A4.58 4.58 0 018 3.42a4.58 4.58 0 014.577 4.584A4.58 4.58 0 018 12.587z" clip-rule="evenodd"/><path d="M4.034 15.29l1.296-.127c.226 0 .539.122.657.226l.896.8-1.308 3.6a.544.544 0 01-1.013.03l-.616-1.424-1.385.694a.544.544 0 01-.757-.674L3.03 15.04a1.587 1.587 0 001.004.249zm8.084.009c.306 0 .599-.097.85-.257l1.227 3.374a.546.546 0 01-.757.675l-1.385-.695-.617 1.424a.544.544 0 01-1.012-.03l-1.307-3.6.895-.799c.118-.104.427-.226.688-.226l1.266.126c.051.005.101.008.152.008z"/></symbol><symbol id="check" xmlns="http://www.w3.org/2000/svg" viewBox="0 0 22 22"><path fill-rule="evenodd" clip-rule="evenodd" d="M17.743 4.552a.444.444 0 01.629 0l1.257 1.257a.444.444 0 010 .629L8.648 17.418a.445.445 0 01-.629 0l-5.647-5.647a.444.444 0 010-.628l1.257-1.257a.444.444 0 01.628 0l4.077 4.076 9.41-9.41z"/></symbol><symbol id="chevron-down" viewBox="0 0 24 24" xmlns="http://www.w3.org/2000/svg"><path d="M11.442 12.146l.602.583 5.572-5.64a1.983 1.983 0 012.803 2.803l-7.017 7.018a1.982 1.982 0 01-2.804 0L3.581 9.892a1.983 1.983 0 012.803-2.804l5.058 5.058z"/></symbol><symbol id="chevron-right" viewBox="0 0 24 24" xmlns="http://www.w3.org/2000/svg"><path d="M12.146 12.558l.583-.602-5.64-5.572a1.983 1.983 0 012.803-2.803l7.018 7.017c.774.774.774 2.03 0 2.804l-7.018 7.017a1.982 1.982 0 01-2.804-2.803l5.058-5.058z"/></symbol><symbol id="chevron-top" viewBox="0 0 24 24" xmlns="http://www.w3.org/2000/svg"><path d="M12.558 11.854l-.602-.584-5.572 5.642a1.982 1.982 0 01-2.803-2.804l7.017-7.018a1.983 1.983 0 012.804 0l7.017 7.018a1.982 1.982 0 01-2.803 2.803l-5.058-5.057z"/></symbol><symbol id="chevron-left" viewBox="0 0 24 24" xmlns="http://www.w3.org/2000/svg"><path d="M11.854 11.442l-.584.602 5.642 5.572a1.982 1.982 0 01-2.804 2.803L7.09 13.402a1.983 1.983 0 010-2.804l7.018-7.017a1.983 1.983 0 012.803 2.803l-5.057 5.058z"/></symbol><symbol id="close-auth" xmlns="http://www.w3.org/2000/svg" viewBox="0 0 24 24"><path d="M20.392 6.745l-5.454 5.454 5.454 5.454a2.077 2.077 0 01-2.937 2.938L12 15.136l-5.455 5.455a2.07 2.07 0 01-1.468.608 2.077 2.077 0 01-1.468-3.546L9.062 12.2 3.608 6.745a2.077 2.077 0 012.937-2.938L12 9.262l5.454-5.455a2.077 2.077 0 012.938 2.938z"/></symbol><symbol id="close" viewBox="0 0 36 36" xmlns="http://www.w3.org/2000/svg"><path d="M26.392 12.745l-5.454 5.454 5.454 5.454a2.077 2.077 0 01-2.937 2.938L18 21.136l-5.455 5.455a2.07 2.07 0 01-1.468.608 2.077 2.077 0 01-1.468-3.546l5.454-5.454-5.455-5.454a2.077 2.077 0 012.937-2.938L18 15.262l5.454-5.455a2.077 2.077 0 012.938 2.938z"/></symbol><symbol id="deposit" xmlns="http://www.w3.org/2000/svg" viewBox="0 0 20 21"><path d="M10.615.842c-2.41-.063-4.872.23-6.688.878-1.42.514-2.261 1.132-2.261 1.749 0 .617.842 1.234 2.261 1.749 1.423.508 3.245.798 5.127.869A6.078 6.078 0 018.957 5 6.02 6.02 0 0110.615.842zm-1.279 6.27c-2.1-.053-4.16-.359-5.777-.917-.79-.31-1.42-.618-1.893-.977v2.621c0 .618.842 1.235 2.261 1.75 2.225.794 5.422 1.055 8.301.782a6.063 6.063 0 01-2.892-3.26z"/><path d="M14.593 11.029c-3.493.738-8.027.567-11.034-.515-.79-.256-1.42-.565-1.893-.926v2.572c0 .669.842 1.286 2.261 1.749 3.311 1.182 8.78 1.182 12.145 0 1.367-.463 2.26-1.08 2.26-1.75v-2.118a6.015 6.015 0 01-3.74.988z"/><path d="M16.44 14.886c-3.576 1.285-9.306 1.285-12.881 0a6.407 6.407 0 01-1.893-.977v2.623c0 .616.842 1.234 2.261 1.748 3.311 1.182 8.78 1.182 12.145 0 1.367-.515 2.26-1.132 2.26-1.75v-2.62a8.068 8.068 0 01-1.892.977z"/><path fill-rule="evenodd" d="M15 10a5 5 0 100-10 5 5 0 000 10zm.758-5.781h.96a.781.781 0 110 1.562h-.96v.96a.759.759 0 01-1.518 0v-.96h-.96a.781.781 0 110-1.562h.96v-.96a.759.759 0 011.518 0v.96z" clip-rule="evenodd"/></symbol><symbol id="crab" viewBox="0 0 20 18" xmlns="http://www.w3.org/2000/svg"><path d="M18.04 4.523c-.349.484-.684.952-1.026 1.416-.157.213-.312.431-.492.624-.281.3-.553.336-.927.166-.149-.069-.304-.124-.45-.197-.181-.09-.3-.059-.396.129-.176.344-.374.677-.552 1.02-.236.453-.654.614-1.135.43-.254-.098-.51-.196-.77-.278-.07-.021-.181-.01-.235.035-.707.572-1.391 1.174-1.84 1.973a3.335 3.335 0 00-.407 1.135c-.093.659.14.838.701 1 .521.15.984-.012 1.384-.364.077-.068.15-.14.237-.193.317-.196.596-.102.743.275.12-.117.236-.217.338-.33.44-.478.907-.922 1.514-1.192a1.73 1.73 0 01.228-.09c.33-.093.552.048.609.381.04.236.15.31.339.167.177-.133.318-.326.441-.515.144-.22.23-.477.377-.695.331-.498.82-.505 1.196-.039.235.292.344.63.367.995.03.478-.03.94-.201 1.395-.43 1.147-1.227 2.006-2.167 2.752-1.254.997-2.703 1.628-4.208 2.145-1.24.425-2.507.728-3.818.816-1.542.105-3.02-.13-4.362-.93-.862-.515-1.635-1.137-2.139-2.03-.47-.833-.683-1.74-.742-2.681-.088-1.405.077-2.773.668-4.07a10.123 10.123 0 012.079-2.975 13.91 13.91 0 014.643-3.103c1.668-.677 3.405-1.071 5.21-1.062a11.26 11.26 0 014.654 1.005c.437.199.853.45 1.132.851.142.206.27.452.305.694.053.363.041.74.012 1.109-.022.277-.199.472-.493.525-.293.053-.56.015-.756-.238-.011-.015-.028-.027-.06-.055z"/></symbol><symbol id="email-account" viewBox="0 0 16 12" xmlns="http://www.w3.org/2000/svg"><path d="M1.87 3.923c1.31.926 2.53 1.984 3.835 2.902l.38.272c.193.14.354.253.482.34.128.086.283.183.464.29.182.107.353.187.514.24.16.054.31.081.446.081h.018c.137 0 .286-.027.447-.08.16-.054.331-.134.513-.241.181-.107.336-.204.464-.29.128-.087.289-.2.482-.34l.38-.272c.547-.38 1.607-1.348 3.845-2.902.434-.303.797-.67 1.09-1.098.29-.428.437-.878.437-1.348 0-.393-.142-.73-.425-1.009a1.38 1.38 0 00-1.004-.42H1.762C1.304.048.95.203.704.513c-.247.31-.37.696-.37 1.16 0 .375.163.782.49 1.22.328.437.676.78 1.045 1.03z"/><path d="M14.774 4.879c-1.952 1.32-3.101 2.348-4.113 3.08-.34.25-.615.445-.826.585-.211.14-.493.283-.844.428a2.569 2.569 0 01-.982.219h-.018a2.57 2.57 0 01-.982-.219 5.098 5.098 0 01-.844-.428c-.211-.14-.486-.335-.826-.585-.803-.59-1.949-1.616-4.104-3.08a4.73 4.73 0 01-.902-.777v6.422c0 .393.14.73.42 1.01.28.28.616.419 1.009.419h12.476c.393 0 .73-.14 1.01-.42.279-.28.419-.616.419-1.009V4.102a4.923 4.923 0 01-.893.777z"/></symbol><symbol id="favourites-fill" viewBox="0 0 24 24" xmlns="http://www.w3.org/2000/svg"><path d="M9.661 21.8c.482.383.884.686 1.168.895.385.284.78.555 1.172.828.392-.273.787-.544 1.171-.828a44.145 44.145 0 004.707-4.017c1.286-1.272 2.607-2.764 3.613-4.348.996-1.567 1.758-3.338 1.758-5.14 0-1.913-.477-3.77-1.613-5.174C20.47 2.574 18.721 1.75 16.5 1.75c-1.56 0-2.922.649-3.835 1.224-.248.156-.471.312-.665.457a10.177 10.177 0 00-.666-.458C10.422 2.4 9.06 1.75 7.5 1.75c-2.22 0-3.97.823-5.138 2.266C1.227 5.42.75 7.276.75 9.19c0 1.802.762 3.573 1.758 5.14 1.006 1.584 2.327 3.076 3.614 4.348a44.156 44.156 0 003.54 3.122z"/></symbol><symbol id="favourites-outline" viewBox="0 0 24 24" xmlns="http://www.w3.org/2000/svg"><path fill-rule="evenodd" clip-rule="evenodd" d="M9.661 21.8c.482.383.884.686 1.168.895.385.284.78.555 1.172.828.392-.273.787-.544 1.171-.828a44.145 44.145 0 004.707-4.017c1.286-1.272 2.607-2.764 3.613-4.348.996-1.567 1.758-3.338 1.758-5.14 0-1.913-.477-3.77-1.613-5.174C20.47 2.574 18.721 1.75 16.5 1.75c-1.56 0-2.922.649-3.835 1.224-.248.156-.471.312-.665.457a10.177 10.177 0 00-.666-.458C10.422 2.4 9.06 1.75 7.5 1.75c-2.22 0-3.97.823-5.138 2.266C1.227 5.42.75 7.276.75 9.19c0 1.802.762 3.573 1.758 5.14 1.006 1.584 2.327 3.076 3.614 4.348a44.156 44.156 0 003.54 3.122zM4.306 5.588c-.67.83-1.056 2.068-1.056 3.602 0 1.123.489 2.416 1.368 3.8.868 1.366 2.048 2.71 3.261 3.91a41.63 41.63 0 004.122 3.55 41.641 41.641 0 004.12-3.55c1.213-1.199 2.393-2.543 3.261-3.91.88-1.383 1.368-2.677 1.368-3.8 0-1.534-.386-2.773-1.056-3.602-.64-.79-1.64-1.338-3.194-1.338-.89 0-1.778.383-2.503.84a7.709 7.709 0 00-1.055.8l-.05.048-.008.008-.885.89-.883-.89-.01-.008a6.055 6.055 0 00-.27-.24 7.701 7.701 0 00-.834-.61C9.277 4.633 8.39 4.25 7.5 4.25c-1.554 0-2.555.548-3.194 1.338z"/></symbol><symbol id="filter-fill" viewBox="0 0 16 15" xmlns="http://www.w3.org/2000/svg"><path d="M6.873 14.634c.163.082.326.082.489.082.489 0 1.059-.244 1.303-.652 0 0 0-.081.082-.081l1.792-2.934c.082-.163.082-.244.082-.407V6.894l4.4-4.156c.57-.407.652-1.059.489-1.63C15.184.458 14.532.05 13.88.05H2.717c-.733 0-1.385.408-1.63 1.06-.325.57-.162 1.222.326 1.71l4.4 4.075v6.192c0 .652.408 1.304 1.06 1.548z"/></symbol><symbol id="football" xmlns="http://www.w3.org/2000/svg" viewBox="0 0 21 20"><g clip-path="url(#a)"><path d="M10.143.833C5.09.833.976 4.947.976 10s4.114 9.167 9.167 9.167 9.166-4.114 9.166-9.167S15.197.833 10.143.833zM1.87 10c0-.626.067-1.207.2-1.789l2.26-1.296 2.683 1.542v3.086L4.33 13.085 2.072 11.79A7.833 7.833 0 011.871 10zm5.365-1.945L4.553 6.512V3.896a8.147 8.147 0 013.108-1.788L9.92 3.427v3.107l-2.683 1.52zm5.813 3.89l2.683 1.543v2.616a8.147 8.147 0 01-3.107 1.788l-2.259-1.319v-3.108l2.683-1.52zm2.683-8.049v2.616L13.05 8.055l-2.683-1.543V3.404l2.259-1.296c1.162.38 2.235.983 3.107 1.788zM4.553 16.104v-2.616l2.683-1.543 2.683 1.543v3.107l-2.258 1.297c-1.162-.38-2.236-.983-3.108-1.788zm11.403-3.019l-2.683-1.542V8.457l2.683-1.542 2.258 1.296a8.049 8.049 0 010 3.578l-2.258 1.296z"/></g></symbol><symbol id="full-screen-game-page" viewBox="0 0 20 21" xmlns="http://www.w3.org/2000/svg"><path fill-rule="evenodd" clip-rule="evenodd" d="M2.5 3h5.833v1.667H4.167v4.166H2.5V3zm13.333 1.667h-4.166V3H17.5v5.833h-1.667V4.667zM4.167 16.333v-4.166H2.5V18h5.833v-1.667H4.167zm11.666 0v-4.166H17.5V18h-5.833v-1.667h4.166z"/></symbol><symbol id="gamepage-shop" xmlns="http://www.w3.org/2000/svg" viewBox="0 0 24 24"><path fill-rule="evenodd" d="M12 3.25a2.75 2.75 0 00-2.705 2.253c-.05.271-.269.497-.545.497h-1.5a.466.466 0 01-.477-.5 5.25 5.25 0 0110.454 0c.026.275-.2.5-.477.5h-1.5c-.276 0-.495-.226-.545-.497A2.75 2.75 0 0012 3.25zm9.949 19.564a1.251 1.251 0 01-.95.436H3a1.25 1.25 0 01-1.235-1.44l2-13a1.25 1.25 0 011.63-.996l.02.006.086.027a20.847 20.847 0 001.744.427A24.53 24.53 0 0012 8.75c1.899 0 3.565-.237 4.755-.476a20.86 20.86 0 001.744-.427c.04-.012.069-.02.086-.027l.02-.006a1.25 1.25 0 011.63.996l2 13a1.25 1.25 0 01-.286 1.004zM6.023 10.568A27.034 27.034 0 0012 11.25a27.034 27.034 0 005.977-.682l1.566 10.182H4.457l1.566-10.182z" clip-rule="evenodd"/></symbol><symbol id="done" viewBox="0 0 20 20" xmlns="http://www.w3.org/2000/svg"><path d="M7.596 11.954a1 1 0 001.414 0l6.364-6.365a.833.833 0 111.179 1.179L9.01 14.31a1 1 0 01-1.414 0L3.59 10.303a.833.833 0 111.179-1.178l2.828 2.829z"/></symbol><symbol id="history" viewBox="0 0 16 15" xmlns="http://www.w3.org/2000/svg"><path d="M6.486.389a7.155 7.155 0 015.733.978 7.032 7.032 0 012.152 2.277 6.943 6.943 0 01.481 6.059 6.997 6.997 0 01-1.767 2.581 7.098 7.098 0 01-2.725 1.566 7.156 7.156 0 01-6.08-.891.88.88 0 01-.39-.705.868.868 0 01.355-.722.882.882 0 011.018-.025 5.353 5.353 0 006.383-.3 5.243 5.243 0 001.775-2.831 5.197 5.197 0 00-.305-3.318 5.273 5.273 0 00-2.262-2.47 5.36 5.36 0 00-6.333.845A5.23 5.23 0 002.982 6.55l.986-.102a.274.274 0 01.225.2.267.267 0 01-.101.283L1.934 9.276a.275.275 0 01-.378-.05l-1.498-2.9a.268.268 0 01.096-.408.275.275 0 01.158-.024l.92.404c.117-.925.42-1.817.889-2.624a7.024 7.024 0 011.847-2.078A7.11 7.11 0 016.486.39z"/><path d="M8.716 3.438a.863.863 0 01.604.247.844.844 0 01.25.597v3.56h-.012l-2.89 2.1a.862.862 0 01-1.194-.182.838.838 0 01.183-1.18l2.205-1.602V4.282a.837.837 0 01.25-.597.855.855 0 01.604-.247z"/></symbol><symbol id="help-centre" xmlns="http://www.w3.org/2000/svg" viewBox="0 0 20 20"><path fill-rule="evenodd" clip-rule="evenodd" d="M10 19.167A9.167 9.167 0 1010 .833a9.167 9.167 0 000 18.334zm-.733-8.062c-.046.431.321.784.755.784.433 0 .74-.364.872-.777l.016-.047c.07-.185.173-.348.311-.489.14-.14.32-.276.539-.406.26-.155.484-.327.675-.518a2.1 2.1 0 00.443-.663 2.17 2.17 0 00.162-.862c0-.483-.12-.896-.36-1.238a2.261 2.261 0 00-.995-.783c-.423-.183-.909-.274-1.458-.274-.5 0-.957.09-1.372.27a2.278 2.278 0 00-.998.807 2.021 2.021 0 00-.256.511c-.154.452.252.857.73.857h.22c.334 0 .578-.29.764-.568a.973.973 0 01.394-.348c.16-.08.33-.12.51-.12.184 0 .353.039.505.116a.91.91 0 01.369.331c.09.144.136.311.136.502 0 .18-.04.342-.12.488a1.49 1.49 0 01-.323.394 3.916 3.916 0 01-.46.344c-.23.144-.425.304-.588.48a1.744 1.744 0 00-.373.696c-.048.168-.079.34-.098.513zm.081 3.146c.196.193.433.29.709.29.177 0 .34-.044.489-.133.149-.09.269-.211.36-.36a.95.95 0 00-.157-1.197.962.962 0 00-.692-.29.972.972 0 00-.709.29.935.935 0 00-.286.695.953.953 0 00.286.705z"/></symbol><symbol id="home" xmlns="http://www.w3.org/2000/svg" viewBox="0 0 18 19"><path fill-rule="evenodd" d="M8.315.265a1.042 1.042 0 011.37 0l7.5 6.548c.226.197.356.484.356.784v10.12a1.04 1.04 0 01-1.041 1.041h-15a1.042 1.042 0 01-1.042-1.042V7.597c0-.3.13-.587.357-.784l7.5-6.548zM2.54 8.071v8.604h5.417v-5.117a.5.5 0 01.5-.5H9.54a.5.5 0 01.5.5v5.117h5.417V8.07L9 2.433 2.54 8.07z" clip-rule="evenodd"/></symbol><symbol id="horse-racing" xmlns="http://www.w3.org/2000/svg" viewBox="0 0 20 20"><path d="M15.106.6c-1.78.865-2.66 2.047-2.703 3.523-.5.028-1.004.126-1.496.26.413 1.204.886 2.24 1.594 3.24.605-1.458 1.711-2.513 3.48-3.029a3.08 3.08 0 00-.64-.59c.241-1.071.148-2.21-.235-3.405zm-4.839 3.982a14.06 14.06 0 00-2.256 1.033c-.64.361-1.229.744-1.78 1.145l.028 8.725a4 4 0 004.011 4.012 4.004 4.004 0 002.833-1.16c-.708-2.653-2.256-4.623-1.64-7.759.716 1.04 1.622 1.723 2.823 1.856v-1.935c-2.193-1.945-3.245-3.69-4.018-5.918v.001zm6.115.594c-1.898.48-2.865 1.495-3.39 3.065.826 1.01 1.929 2.024 3.496 3.186l1.93-1.93-.609-1.03c-.69-1.165-.897-2.338-1.427-3.291zM15.29 7.151a.336.336 0 110 .67.336.336 0 010-.67zm-9.732.127C2.936 9.42 1.405 12.188.65 16.218l-.425 2.27a1 1 0 00.997 1.185l6.775-.096a4.687 4.687 0 01-2.412-4.088l-.027-8.211zm13.215 2.816l-2.605 2.603 1.09 1.092a1.407 1.407 0 001.995 0l.333-.332a1.405 1.405 0 000-1.993l-.813-1.37zm-3.818.98v1.386h.5l.553-.553c-.382-.286-.72-.559-1.053-.832z"/></symbol><symbol id="ice-hockey" xmlns="http://www.w3.org/2000/svg" viewBox="0 0 21 20"><path d="M17.148 2.474a270.17 270.17 0 00-1.474 2.322l2.231 1.157 1.293-2.416-2.05-1.063zm.307-.477l2.009 1.042L20.714.7 18.851 0c-.129.089-.644.839-1.396 1.997zM8.37 16.641c1.803-2.956 4.705-7.697 7.004-11.365L17.64 6.45 10.393 20h-4.11L5.17 16.641h3.198zM5.415 20l-1.112-3.359H3.57L4.682 20h.733zm-4.7-3.359h1.987L3.814 20H2.079L.714 16.641zm8.688-9.887H1.971v2.757h7.432V6.754z" fill-rule="evenodd" clip-rule="evenodd"/></symbol><symbol id="live-casino-fill" xmlns="http://www.w3.org/2000/svg" viewBox="0 0 18 19"><path fill-rule="evenodd" d="M12.703 14.805c0 .918-.73 1.662-1.628 1.662h-8.78c-.899 0-1.628-.744-1.628-1.662V1.878C.667.96 1.396.216 2.295.216h8.78c.899 0 1.628.744 1.628 1.662v12.927zm-4.308-4.142h.014-.024.01zm-1.048-.42c.092.187.367.417 1.048.42.315-.001.624-.085.899-.243.277-.16.51-.39.675-.668a1.921 1.921 0 00.057-1.857C9.589 6.832 8 5.268 7.104 4.385c-.14-.138-.264-.26-.363-.36l-.188.183c-.86.834-2.63 2.548-3.097 3.687a1.924 1.924 0 00.057 1.857c.165.278.398.508.675.668.278.16.592.244.91.244.691 0 .97-.233 1.062-.422l-.514 2.081H7.86l-.514-2.08z" clip-rule="evenodd"/><path d="M13.587 2.271l1.685.447c.35.091.68.252.969.474.289.222.532.5.715.818a2.832 2.832 0 01.287 2.13l-2.628 10.32a2.826 2.826 0 01-.472.986 2.77 2.77 0 01-.807.726 2.708 2.708 0 01-2.09.282l-3.572-.963a.253.253 0 01-.144-.104.262.262 0 01-.042-.175c.007-.062.08-.161.08-.161h4.107c.67-.046 1.31-.271 1.49-.987l2.637-10.318a1.304 1.304 0 00-.132-.966 1.258 1.258 0 00-.76-.59l-1.491-.396a.244.244 0 01-.139-.095.253.253 0 01-.047-.163l.042-1.032a.255.255 0 01.1-.194.242.242 0 01.212-.038z"/></symbol><symbol id="information-fill" xmlns="http://www.w3.org/2000/svg" viewBox="0 0 16 16"><path fill-rule="evenodd" clip-rule="evenodd" d="M15.333 8A7.333 7.333 0 11.667 8a7.333 7.333 0 0114.666 0zM7.12 7.377a.843.843 0 111.686 0v4.18a.843.843 0 01-1.686 0v-4.18zM7.963 3.6a.843.843 0 100 1.687.843.843 0 000-1.687z"/></symbol><symbol id="live-betting" xmlns="http://www.w3.org/2000/svg" viewBox="0 0 20 16"><path fill-rule="evenodd" d="M.714.266h18.572c.428 0 .714.333.714.833v13.333c0 .5-.286.834-.714.834H.714c-.428 0-.714-.334-.714-.834V1.1C0 .6.286.266.714.266zm.897 4.56v5.768h3.691V9.588H2.83V4.827H1.61zm5.718 5.768V4.827H6.11v5.767h1.22zm2.045-5.767l1.394 4.381h.053l1.397-4.381h1.352l-1.988 5.767H10.01L8.02 4.827h1.354zm4.89 0v5.767h3.897V9.588h-2.678V8.211h2.467V7.206h-2.467V5.832h2.666V4.827h-3.885z" clip-rule="evenodd"/></symbol><symbol id="live-chat" viewBox="0 0 16 16" xmlns="http://www.w3.org/2000/svg"><path d="M7.969.5C3.575.5 0 3.654 0 7.531c0 1.638.648 3.225 1.828 4.483a2.85 2.85 0 01-.753 2.686.47.47 0 00.331.8 5.168 5.168 0 003.58-1.446 8.837 8.837 0 002.983.508c4.394 0 8.031-3.153 8.031-7.03C16 3.653 12.363.5 7.969.5zM4.28 8.938a1.408 1.408 0 010-2.813c.776 0 1.407.63 1.407 1.406 0 .776-.631 1.407-1.407 1.407zm3.75 0a1.408 1.408 0 010-2.813c.776 0 1.406.63 1.406 1.406 0 .776-.63 1.407-1.406 1.407zm3.75 0a1.408 1.408 0 010-2.813c.776 0 1.406.63 1.406 1.406 0 .776-.63 1.407-1.406 1.407z"/></symbol><symbol id="loader" viewBox="0 0 20 20" xmlns="http://www.w3.org/2000/svg"><path d="M10.001 1.667a.833.833 0 01.834.833V5a.834.834 0 01-1.667 0V2.5a.833.833 0 01.833-.833zm0 12.5a.833.833 0 01.834.833v2.5a.834.834 0 11-1.667 0V15a.833.833 0 01.833-.834zM18.335 10a.834.834 0 01-.834.833h-2.5a.833.833 0 010-1.667h2.5a.833.833 0 01.834.834zm-12.5 0a.833.833 0 01-.834.833h-2.5a.833.833 0 110-1.667h2.5a.833.833 0 01.834.834zm10.059 5.892a.833.833 0 01-1.178 0l-1.768-1.767a.833.833 0 011.178-1.178l1.768 1.766a.835.835 0 010 1.18zm-8.84-8.839a.833.833 0 01-1.178 0L4.11 5.287a.833.833 0 111.178-1.18l1.767 1.768a.833.833 0 010 1.178zm-2.944 8.84a.833.833 0 010-1.179l1.767-1.768a.832.832 0 011.433.587.833.833 0 01-.255.592L5.29 15.892a.832.832 0 01-1.18 0zm8.838-8.84a.833.833 0 010-1.178l1.767-1.768a.834.834 0 011.179 1.179l-1.768 1.767a.833.833 0 01-1.178 0z"/></symbol><symbol id="lock" xmlns="http://www.w3.org/2000/svg" viewBox="0 0 28 41"><path fill-rule="evenodd" d="M13.991 0C8.15 0 3.413 4.736 3.413 10.578V13H7.57v-2.422a6.422 6.422 0 0112.844 0v4.34H4.5a4 4 0 00-4 4v17.185a4 4 0 004 4h19a4 4 0 004-4V18.918a4.002 4.002 0 00-2.93-3.856v-4.484C24.57 4.736 19.832 0 13.99 0zm1.66 27.914a3.251 3.251 0 001.648-2.823c0-1.8-1.477-3.26-3.3-3.26-1.823 0-3.3 1.46-3.3 3.26 0 1.207.664 2.26 1.651 2.824v4.781h3.3v-4.782z" clip-rule="evenodd"/></symbol><symbol id="lock-fill" xmlns="http://www.w3.org/2000/svg" viewBox="0 0 21 21"><path d="M16.125 8.349H15.5v-2.5c0-2.758-2.242-5-5-5s-5 2.242-5 5v2.5h-.625C3.842 8.349 3 9.189 3 10.224v8.75c0 1.034.842 1.875 1.875 1.875h11.25c1.033 0 1.875-.841 1.875-1.875v-8.75a1.877 1.877 0 00-1.875-1.875zm-8.958-2.5A3.337 3.337 0 0110.5 2.515a3.337 3.337 0 013.333 3.334v2.5H7.167v-2.5zm4.166 8.935v1.898a.833.833 0 11-1.666 0v-1.898a1.661 1.661 0 01-.834-1.435c0-.92.748-1.667 1.667-1.667.92 0 1.667.748 1.667 1.667 0 .614-.338 1.146-.834 1.435z"/></symbol><symbol id="logout-fill" xmlns="http://www.w3.org/2000/svg" viewBox="0 0 16 16"><path d="M5.711 2.56L.836 0C.411.16.002.682.002 1.284v10.928c0 .479.234.91.628 1.172l3.75 2.38c.897.61 2.184-.023 2.184-1.172V3.862c0-.553-.309-1.03-.853-1.303zM4.69 8.936a.468.468 0 11-.937 0V7.063a.468.468 0 11.937 0v1.875zm11.126-1.309L12.52 5.326a.469.469 0 00-.8.331v1.406H7.97a.469.469 0 00-.469.468v.938c0 .259.21.469.469.469h3.75v1.405c0 .417.505.627.8.331l3.296-2.3a.469.469 0 000-.747z"/><path d="M7.501 9.875v4.25h1.406c.776 0 1.407-.63 1.407-1.406V9.875H7.5zM8.907 0H2.852l3.276 1.72h.002l.016.01c.843.42 1.355 1.22 1.355 2.133v2.262h2.813V1.406C10.314.631 9.683 0 8.907 0z"/></symbol><symbol id="login-outline" xmlns="http://www.w3.org/2000/svg" viewBox="0 0 24 24"><path d="M18.083 6a6 6 0 11-12 0 6 6 0 0112 0zm-2 0a4 4 0 11-8 0 4 4 0 018 0zm5.832 14.855C22.204 21.986 21.167 23 20 23H4.166c-1.168 0-2.205-1.014-1.916-2.145a9.196 9.196 0 011.343-2.919C4.973 15.915 7.532 14 12.083 14c4.55 0 7.109 1.915 8.49 3.936a9.199 9.199 0 011.342 2.919zm-2.994-1.791c.303.444.53.89.698 1.299.128.31-.112.637-.449.637H4.995c-.337 0-.577-.326-.449-.637.169-.41.395-.855.698-1.299C6.254 17.585 8.196 16 12.082 16c3.887 0 5.829 1.585 6.839 3.064z" fill-rule="evenodd" clip-rule="evenodd"/></symbol><symbol id="help" xmlns="http://www.w3.org/2000/svg" viewBox="0 0 16 16"><path fill-rule="evenodd" d="M8 15.333A7.333 7.333 0 108 .667a7.333 7.333 0 000 14.666zm-.586-6.449c-.038.345.256.628.603.628s.593-.291.698-.622l.013-.038c.055-.148.138-.278.249-.391.112-.113.256-.221.43-.325a2.75 2.75 0 00.54-.414c.153-.155.271-.332.355-.53.087-.202.13-.431.13-.69 0-.387-.097-.717-.289-.99a1.81 1.81 0 00-.795-.627 2.922 2.922 0 00-1.167-.22c-.4 0-.765.073-1.097.216a1.822 1.822 0 00-.799.647 1.617 1.617 0 00-.205.408c-.123.362.202.685.584.685h.176c.268 0 .463-.232.612-.454a.778.778 0 01.315-.278.9.9 0 01.408-.096c.148 0 .282.03.404.093a.72.72 0 01.405.665.801.801 0 01-.097.392 1.19 1.19 0 01-.258.315 3.263 3.263 0 01-.368.275c-.184.115-.34.243-.471.384-.13.142-.23.327-.298.557a2.422 2.422 0 00-.078.41zm.064 2.517a.778.778 0 00.567.232.753.753 0 00.391-.106.857.857 0 00.289-.289.76.76 0 00-.126-.958.77.77 0 00-.554-.231.778.778 0 00-.567.232.748.748 0 00-.228.556.763.763 0 00.228.564z" clip-rule="evenodd"/></symbol><symbol id="logout-outline" viewBox="0 0 17 17" xmlns="http://www.w3.org/2000/svg"><path d="M6.21 3.325L1.337.765C.91.926.5 1.448.5 2.05v10.928c0 .478.235.91.628 1.172l3.75 2.38c.897.609 2.185-.023 2.185-1.173V4.628c0-.553-.31-1.031-.853-1.303zM5.19 9.703a.469.469 0 11-.938 0V7.828a.468.468 0 11.938 0v1.875zM16.315 8.392l-3.296-2.3a.469.469 0 00-.8.33v1.406H8.47a.469.469 0 00-.468.469v.937c0 .26.21.47.468.47h3.75v1.404c0 .418.505.627.8.332l3.296-2.301a.469.469 0 000-.747z"/><path d="M8 10.64v4.25h1.407c.775 0 1.406-.63 1.406-1.406v-2.843H8.001zM9.407.766H3.352l3.275 1.72h.002l.017.009C7.488 2.915 8 3.716 8 4.628v2.263h2.812V2.17c0-.775-.63-1.405-1.406-1.405z"/></symbol><symbol id="promotions" xmlns="http://www.w3.org/2000/svg" viewBox="0 0 20 20"><path d="M17.97 3.561h-1.334a2.13 2.13 0 00.326-.924C17.067 1.58 16.51.63 15.563.21a2.34 2.34 0 00-2.555.412l-1.685 1.53a1.788 1.788 0 00-2.649.001L6.987.62A2.342 2.342 0 004.432.21c-.947.42-1.504 1.37-1.398 2.429.033.331.15.644.325.923H2.03c-.66 0-1.196.536-1.196 1.198v1.796a.6.6 0 00.598.6h17.137a.6.6 0 00.598-.6V4.76c0-.662-.535-1.198-1.195-1.198zm-9.764-.2v.2H5.394A1.181 1.181 0 014.25 2.092c.082-.341.328-.632.646-.78a1.15 1.15 0 011.288.196l2.022 1.836v.017zm7.57-.883c-.045.623-.607 1.083-1.23 1.083h-2.753v-.22l1.99-1.808c.307-.278.735-.408 1.131-.29.569.17.903.655.861 1.235zM2.029 8.352v8.784c0 .661.535 1.197 1.195 1.197h5.58v-9.98H2.029zm9.166 0v9.981h5.58c.66 0 1.196-.536 1.196-1.197V8.352h-6.776z"/></symbol><symbol id="profile" viewBox="0 0 20 20" xmlns="http://www.w3.org/2000/svg"><path d="M9.874 9.634c1.322 0 2.467-.475 3.402-1.411.935-.937 1.41-2.082 1.41-3.406 0-1.323-.475-2.47-1.41-3.406C12.34.475 11.196 0 9.874 0S7.407.475 6.472 1.411c-.935.937-1.41 2.082-1.41 3.406 0 1.324.475 2.47 1.41 3.406.936.936 2.08 1.411 3.402 1.411zM18.293 15.379c-.027-.39-.082-.815-.162-1.264a9.965 9.965 0 00-.31-1.27 6.275 6.275 0 00-.522-1.185 4.468 4.468 0 00-.787-1.027 3.47 3.47 0 00-1.13-.71 3.902 3.902 0 00-1.443-.262c-.204 0-.4.084-.782.332-.234.153-.508.33-.814.526-.262.167-.617.323-1.054.465-.428.138-.861.208-1.29.208-.428 0-.861-.07-1.289-.208-.437-.142-.792-.298-1.053-.465-.303-.194-.578-.371-.816-.526-.38-.249-.577-.332-.781-.332-.52 0-1.005.088-1.443.261-.44.175-.82.414-1.13.711A4.47 4.47 0 002.7 11.66c-.216.382-.392.78-.521 1.185-.125.39-.23.818-.31 1.27-.08.448-.135.874-.162 1.264-.027.383-.04.78-.04 1.181 0 1.044.331 1.89.985 2.513.645.615 1.5.927 2.539.927h9.619c1.038 0 1.892-.312 2.538-.927.654-.623.985-1.468.985-2.513 0-.403-.013-.8-.04-1.181z"/></symbol><symbol id="notification-success" viewBox="0 0 24 25" xmlns="http://www.w3.org/2000/svg"><path d="M12 .5C5.364.5 0 5.864 0 12.5s5.364 12 12 12 12-5.364 12-12-5.364-12-12-12zm-1.023 16.59a1.092 1.092 0 01-.774.332c-.277 0-.553-.11-.774-.332l-3.512-3.484 1.576-1.576 2.71 2.71 6.304-6.305 1.576 1.576-7.106 7.079z"/></symbol><symbol id="refresh" viewBox="0 0 18 22" xmlns="http://www.w3.org/2000/svg"><path d="M17.177 9.801a1.5 1.5 0 00-1.89-.956 1.5 1.5 0 00-.956 1.89 5.34 5.34 0 01.276 1.743A5.616 5.616 0 019 18.085a5.556 5.556 0 01-3.972-1.635 5.556 5.556 0 01-1.635-3.972c0-2.89 2.209-5.268 5.013-5.566V9.08c0 .637.722.998 1.232.616l4.843-3.696a.757.757 0 000-1.21L9.637 1.07a.769.769 0 00-1.232.616v2.209C3.944 4.215.396 7.932.396 12.499c0 2.294.893 4.46 2.528 6.096A8.548 8.548 0 009 21.102c4.758 0 8.603-3.866 8.603-8.603 0-.935-.127-1.827-.425-2.698z"/></symbol><symbol id="play-fill" viewBox="0 0 25 24" xmlns="http://www.w3.org/2000/svg"><path fill-rule="evenodd" clip-rule="evenodd" d="M4.107 3.464C2.643 4.93 2.643 7.286 2.643 12c0 4.714 0 7.071 1.464 8.535C5.572 22 7.93 22 12.643 22c4.714 0 7.07 0 8.535-1.465 1.465-1.464 1.465-3.821 1.465-8.535s0-7.071-1.465-8.536C19.714 2 17.357 2 12.643 2S5.572 2 4.107 3.464zM17.643 12l-7.5-5v10l7.5-5z"/></symbol><symbol id="search-outline" xmlns="http://www.w3.org/2000/svg" viewBox="0 0 24 24"><path d="M18.634 16.474a.52.52 0 00.044.673l3.615 3.614a1 1 0 010 1.414l-.118.118a1 1 0 01-1.415 0l-3.613-3.615a.52.52 0 00-.673-.044 9.703 9.703 0 01-5.727 1.86C5.367 20.494 1 16.127 1 10.747S5.367 1 10.747 1s9.747 4.367 9.747 9.747a9.703 9.703 0 01-1.86 5.727zm-2.445-.447a7.556 7.556 0 002.139-5.28 7.579 7.579 0 00-7.581-7.581 7.578 7.578 0 00-7.581 7.581 7.579 7.579 0 007.581 7.581 7.556 7.556 0 005.28-2.139l.162-.162z"/></symbol><symbol id="shop-fill" xmlns="http://www.w3.org/2000/svg" viewBox="0 0 20 19"><path fill-rule="evenodd" d="M6.401 4.863c1.108-6.286 5.884-6.286 7.017 0l5.44.236c.247.052.345.21.296.498l-1.108 10.188c-.59 1.833-1.698 2.697-3.176 2.697H5.146c-1.502 0-2.585-.864-3.176-2.697L.837 5.597c-.024-.289.05-.446.32-.498l5.244-.236zm6.057-.052C11.374.018 8.469.018 7.386 4.81h5.072z" clip-rule="evenodd"/></symbol><symbol id="shop" viewBox="0 0 20 21" xmlns="http://www.w3.org/2000/svg"><path fill-rule="evenodd" clip-rule="evenodd" d="M10.001 1.97a4.167 4.167 0 00-4.166 4.167v.833h-2.5L1.668 18.637h16.667L16.668 6.97h-2.5v-.833a4.167 4.167 0 00-4.167-4.167zm2.5 6.667v1.666h1.667V8.637h1.055l1.19 8.333H3.59l1.19-8.333h1.055v1.666H7.5V8.637h5zm0-1.667v-.833a2.5 2.5 0 00-5 0v.833h5z"/></symbol><symbol id="slider-btn" viewBox="0 0 24 24" xmlns="http://www.w3.org/2000/svg"><path fill-rule="evenodd" clip-rule="evenodd" d="M20.613 2.028c1.35.892 2.086 2.387 2.133 3.63.107 2.829-2.127 4.635-4.378 3.986l-.005-.001c-1.008-.3-1.68-.975-1.99-1.796-.301-.801-.245-1.701.105-2.47a.75.75 0 111.365.62c-.197.435-.216.92-.066 1.32.143.38.452.72 1.01.887 1.107.317 2.535-.51 2.46-2.488-.029-.766-.519-1.814-1.46-2.437-.89-.588-2.28-.854-4.25.104-2.773 1.35-5.7 3.585-10.19 7.012L3.241 12c.74.562 1.44 1.097 2.106 1.605 4.49 3.427 7.417 5.661 10.19 7.011 1.97.959 3.36.693 4.25.105.941-.623 1.431-1.672 1.46-2.437.075-1.979-1.353-2.805-2.46-2.488-.558.166-.867.506-1.01.886-.15.4-.131.886.066 1.32a.75.75 0 01-1.365.621c-.35-.769-.406-1.669-.104-2.47.31-.821.981-1.497 1.989-1.796l.005-.001c2.251-.65 4.485 1.157 4.378 3.985-.047 1.244-.784 2.74-2.133 3.631-1.401.926-3.367 1.145-5.732-.007-2.92-1.421-5.996-3.77-10.48-7.194-.892-.682-1.84-1.405-2.854-2.173a.75.75 0 010-1.196c1.014-.768 1.962-1.492 2.854-2.173 4.484-3.424 7.56-5.773 10.48-7.194 2.365-1.152 4.33-.934 5.732-.007z"/></symbol><symbol id="sidebar" xmlns="http://www.w3.org/2000/svg" viewBox="0 0 20 20"><path d="M6.093 4.557c-.92 0-1.667.747-1.667 1.667v7.552c0 .92.747 1.667 1.667 1.667h2.24c.92 0 1.666-.746 1.666-1.667V6.224c0-.92-.746-1.667-1.666-1.667h-2.24z"/><path fill-rule="evenodd" d="M1.666 5.833a4.167 4.167 0 014.167-4.166h8.333a4.167 4.167 0 014.167 4.166v8.334a4.167 4.167 0 01-4.167 4.166H5.833a4.167 4.167 0 01-4.167-4.166V5.833zm4.167-2.5h8.333a2.5 2.5 0 012.5 2.5v8.334a2.5 2.5 0 01-2.5 2.5H5.833a2.5 2.5 0 01-2.5-2.5V5.833a2.5 2.5 0 012.5-2.5z" clip-rule="evenodd"/></symbol><symbol id="sidebar-search" xmlns="http://www.w3.org/2000/svg" viewBox="0 0 24 24"><path fill-rule="evenodd" d="M18.834 5.104a5.491 5.491 0 011.026 6.33c-.09.182-.051.357.038.447l2.505 2.505a1.29 1.29 0 010 1.824l-.22.221a1.29 1.29 0 01-1.825 0l-2.505-2.505c-.09-.09-.265-.13-.446-.039a5.49 5.49 0 01-6.33-1.025 5.491 5.491 0 010-7.758 5.49 5.49 0 017.757 0zM17.13 11.16a3.08 3.08 0 000-4.352 3.081 3.081 0 00-4.352 0 3.082 3.082 0 000 4.352 3.08 3.08 0 004.352 0z" clip-rule="evenodd"/><path d="M2.5 4.68h6.567a6.948 6.948 0 00-1.2 3H2.5a1.5 1.5 0 010-3zm5.47 6H2.5a1.5 1.5 0 000 3h6.934c-.681-.744-1.204-1.724-1.464-3zm10.88 6H2.5a1.5 1.5 0 000 3h17a1.5 1.5 0 001.475-1.227c-.755-.082-1.713-1.19-2.126-1.773z"/></symbol><symbol id="soccer" viewBox="0 0 20 21" xmlns="http://www.w3.org/2000/svg"><path d="M10.001 1.869a8.336 8.336 0 00-8.333 8.333c0 4.6 3.733 8.333 8.333 8.333s8.334-3.733 8.334-8.333S14.6 1.869 10 1.869zm.834 2.75l1.125-.792a6.675 6.675 0 013.65 2.783l-.325 1.117-1.125.383-3.325-2.325V4.62zm-2.792-.792l1.125.792v1.166L5.843 8.11l-1.125-.383-.325-1.117a6.753 6.753 0 013.65-2.783zM5.901 14.46l-.95.084a6.616 6.616 0 01-1.616-4.342c0-.1.008-.192.016-.292l.834-.608 1.15.4 1.216 3.617-.65 1.141zm6.184 2.067a6.655 6.655 0 01-2.084.342 6.655 6.655 0 01-2.083-.342l-.575-1.242.533-.916h4.259l.533.925-.583 1.233zm-.192-3.825H8.11l-1.125-3.35L10 7.235l3.025 2.117-1.133 3.35zm3.158 1.842l-.95-.084-.658-1.141 1.217-3.617 1.158-.392.833.609c.009.091.017.183.017.283a6.616 6.616 0 01-1.617 4.342z"/></symbol><symbol id="sportbook-fill" viewBox="0 0 17 16" xmlns="http://www.w3.org/2000/svg"><path fill-rule="evenodd" clip-rule="evenodd" d="M15.408 5.662a5.411 5.411 0 00-1.035-.853 1.058 1.058 0 00-.088-.051l-1.373 2.206.002.011c.192.955.29 1.924.284 2.9v.046l1.771 1.074c.04-.054.078-.11.115-.165l.06-.09c.189-.272.355-.557.502-.854a7.761 7.761 0 00-.238-4.224zM8.167.674c.322.11.637.245.942.404a.83.83 0 01.07.042l2.968.542a7.215 7.215 0 00-3.98-.988zm4.455 1.593l-3.502-.64a3.47 3.47 0 00-.155.197c-.295.404-.584.813-.87 1.224L9.74 5.962l.105.014.026.004a22.279 22.279 0 012.713.56l1.372-2.204c-.048-.108-.106-.21-.165-.313l-.074-.13a11.216 11.216 0 00-1.095-1.626zm-8.444-.172a7.35 7.35 0 00-.885.774 7.577 7.577 0 00-2.127 4.753.625.625 0 01.14-.137 8.144 8.144 0 011.382-.799l1.755-3.354a7.04 7.04 0 01-.265-1.237zM3.176 6.832l.195.388c.353.692.759 1.35 1.187 1.994l3.5-.368c.173-.344.345-.687.521-1.028.259-.504.52-1.006.783-1.507L7.67 3.314c-.932.004-1.855.097-2.771.273-.009 0-.017.003-.026.005H4.87l-1.695 3.24zm1.375 3.019c-.16.402-.32.805-.47 1.212-.084.227-.155.46-.227.692l-.027.088 2.348 2.713c.323.024.641.013.958-.005.42-.025.839-.07 1.258-.114l.292-.031c.066-.008.132-.023.198-.04l.949-2.93-.327-.335-.163-.166.01-.013-.316-.365c-.3-.344-.598-.687-.896-1.032a2.834 2.834 0 01-.127-.161l-3.41.358-.05.129zm-2.762 1.436c.354.81.856 1.568 1.504 2.233a7.302 7.302 0 002.416 1.646c.004-.117.012-.232.028-.348l-2.312-2.67a4.087 4.087 0 01-.235-.09 7.396 7.396 0 01-1.401-.771zm9.044 4.012l.008.007c-.005.01-.01.019-.016.027a7.277 7.277 0 003.117-2.092c.128-.229.244-.463.347-.705.117-.279.222-.564.326-.849l.04-.109a.551.551 0 00.03-.163l-1.75-1.062c-.676.456-1.393.835-2.13 1.178a7.383 7.383 0 01-.35.15c-.065.026-.13.052-.194.08l-.014.004-.886 2.737c.453.327.933.603 1.462.79.003 0 .006.003.01.007z"/></symbol><symbol id="table-tennis" xmlns="http://www.w3.org/2000/svg" viewBox="0 0 21 20"><path d="M3.563 11.062c-1.565 0-2.838 1.256-2.838 2.8 0 1.544 1.273 2.847 2.838 2.847 1.565 0 2.838-1.303 2.838-2.847s-1.273-2.8-2.838-2.8zm16.311-1.325c1.532-3.559-.227-7.668-3.834-9.179-3.607-1.51-7.773.15-9.304 3.709a6.85 6.85 0 00-.541 2.815l11.927 4.994c.694-.644 1.356-1.419 1.752-2.34zM6.401 8.689a6.982 6.982 0 002.844 4.08L6.97 18.052c-.306.711.03 1.533.752 1.835a1.426 1.426 0 001.86-.741l2.274-5.285a7.161 7.161 0 004.95-.816L6.4 8.69z"/></symbol><symbol id="tournament" xmlns="http://www.w3.org/2000/svg" viewBox="0 0 20 20"><path d="M17.464 3.002H16.41c.016-.313.032-.626.032-.947 0-.313-.119-.626-.333-.855a1.105 1.105 0 00-.808-.367h-10.6c-.31 0-.603.138-.817.367a1.257 1.257 0 00-.325.855c0 .32.016.634.032.947H2.537c-.935 0-1.703.733-1.703 1.641v1.123c0 2.779 2.21 5.062 5.031 5.299.795 2.034 1.814 2.957 2.947 3.325l-.586 3.25H6.72c-.438 0-.792.341-.792.763s.354.763.792.763h6.558c.438 0 .793-.341.793-.763s-.355-.764-.793-.764h-1.504l-.586-3.25c1.133-.311 2.213-1.485 3.066-3.515 2.829-.74 4.912-3.23 4.912-6.185v-.046c0-.908-.768-1.641-1.703-1.641zM2.419 5.766V4.643a.12.12 0 01.118-.114h1.18c.207 1.802.635 3.42 1.213 4.78-1.466-.55-2.511-1.932-2.511-3.543zm15.164-1.077c0 1.703-.92 3.207-2.298 4.085.476-1.244.816-2.68.998-4.245h1.18a.12.12 0 01.12.114v.046z"/></symbol><symbol id="tennis" xmlns="http://www.w3.org/2000/svg" viewBox="0 0 21 20"><path d="M16.768 3.518A9.138 9.138 0 0010.066.836l3.736 3.734a6.326 6.326 0 01-.016 8.93 6.324 6.324 0 01-8.93.014v.002L1.123 9.78a9.145 9.145 0 002.682 6.7A9.168 9.168 0 0016.768 3.518z"/><path d="M5.847 12.518a4.887 4.887 0 003.474 1.43 4.887 4.887 0 003.47-1.442 4.886 4.886 0 001.442-3.47 4.882 4.882 0 00-1.43-3.475l-4.509-4.51a9.107 9.107 0 00-4.49 2.467 9.118 9.118 0 00-2.466 4.49l4.46 4.461.049.049z"/></symbol><symbol id="top-fill" viewBox="0 0 24 24" xmlns="http://www.w3.org/2000/svg"><path d="M12.487 18.533a1 1 0 00-.976 0L6.838 21.15a1 1 0 01-1.47-1.067l1.044-5.253a1 1 0 00-.302-.929l-3.932-3.636a1 1 0 01.56-1.727l5.32-.631a1 1 0 00.79-.574l2.243-4.864a1 1 0 011.816 0l2.243 4.864a1 1 0 00.79.574l5.319.63a1 1 0 01.561 1.728L17.888 13.9a1 1 0 00-.302.929l1.044 5.253a1 1 0 01-1.47 1.067l-4.673-2.616z"/></symbol><symbol id="up-arrow" viewBox="0 0 16 16" xmlns="http://www.w3.org/2000/svg"><path d="M8 16a1.6 1.6 0 01-1.6-1.6V5.853L3.008 9.245A1.762 1.762 0 01.516 6.753L6.754.516a1.762 1.762 0 012.492 0l6.238 6.237a1.762 1.762 0 11-2.492 2.492L9.6 5.81v8.59A1.6 1.6 0 018 16z"/></symbol><symbol id="tournaments-fill" xmlns="http://www.w3.org/2000/svg" viewBox="0 0 20 20"><path d="M17.463 3.15h-1.054c.016-.312.032-.626.032-.946 0-.313-.119-.626-.333-.855A1.106 1.106 0 0015.3.982H4.7c-.31 0-.603.138-.817.367a1.257 1.257 0 00-.325.855c0 .32.016.634.032.947H2.536c-.935 0-1.703.733-1.703 1.641v1.122c0 2.78 2.21 5.063 5.031 5.3.795 2.034 1.814 2.957 2.947 3.324l-.586 3.25H6.72a.778.778 0 00-.792.764c0 .421.354.763.792.763h6.558c.438 0 .793-.342.793-.763 0-.422-.355-.764-.793-.764h-1.504l-.586-3.25c1.133-.312 2.213-1.485 3.066-3.516 2.829-.74 4.912-3.23 4.912-6.184v-.046c0-.908-.768-1.641-1.703-1.641zm-6.465 1.764l.982.138c.238.03.42.19.5.404a.59.59 0 01-.159.611l-.713.672.166.94a.604.604 0 01-.237.587c-.21.13-.444.158-.658.038L10 7.861l-.879.443a.638.638 0 01-.65-.038.593.593 0 01-.245-.588l.166-.947-.713-.664a.59.59 0 01-.158-.61.625.625 0 01.499-.405L9 4.914l.444-.862A.623.623 0 0110 3.723c.237 0 .451.122.554.329l.444.862zm-8.58 1V4.792a.12.12 0 01.118-.114h1.18c.207 1.801.635 3.42 1.213 4.78-1.466-.55-2.511-1.933-2.511-3.544zm15.164-1.076c0 1.703-.92 3.207-2.298 4.085.475-1.245.816-2.68.998-4.245h1.181a.12.12 0 01.119.114v.046z"/></symbol><symbol id="verification-account" viewBox="0 0 32 32" xmlns="http://www.w3.org/2000/svg"><path d="M4.636 13.059V9.656c0-.453.547-.75.912-.967 0 0 8.718-4.325 9.894-4.919.376-.194.73-.194 1.107 0l10.315 5.147L16.548 3.77S26.83 8.905 26.864 8.917c.262.182.433.433.502.741 0 1.05.011 2.111.011 3.161-.022.776-.559 1.13-1.243 1.13-5.318-.011-15.211 0-20.528 0-.239-.011-.582-.206-.742-.365-.135-.135-.24-.404-.228-.525zM27.343 24.557s.023 2.651.012 2.822c-.035.582-.457.982-1.039.993H5.857c-.833 0-1.221-.388-1.221-1.22V24.5c0-.742.422-1.164 1.164-1.164l20.06-.011c-1.13 0 1.14 0 0 0 .262.023.536.011.798.068.491.228.685.529.685 1.164zM24.274 15.313h-3.712v6.562h3.712v-6.563zM11.46 15.313H7.716v6.562h3.743v-6.563zM17.868 15.313h-3.673v6.562h3.673v-6.563z"/></symbol><symbol id="verification-any" viewBox="0 0 32 32" xmlns="http://www.w3.org/2000/svg"><path clip-rule="evenodd" d="M23.258 13.721c3.567 0 6.492-2.911 6.492-6.479 0-3.567-2.912-6.478-6.479-6.478-3.58 0-6.492 2.898-6.492 6.465 0 3.567 2.912 6.479 6.48 6.492zm3.004-4.984l-.014.014a.98.98 0 01-1.298.432l-.863-.435h-.001c-.432-.217-.862-.433-1.287-.653-.315-.158-.498-.433-.498-.787V3.072a.982.982 0 111.967 0c0 .983 0 2.465-.013 3.279-.013.236.079.354.275.445.433.21.866.42 1.299.643a.965.965 0 01.433 1.298zM8.78 29.236H20.07a3.011 3.011 0 003.017-3.03v-7.96c0-1.351-.892-2.531-2.177-2.912-.433-.118-2.01-.979-3.411-2.303-1.4-1.324-2.401-3.795-2.531-4.936-.148-1.299-1.258-2.767-2.74-2.767h-3.45a3.03 3.03 0 00-3.029 3.03v17.848a3.04 3.04 0 003.03 3.03zm6.626-11.113H9.68a1.243 1.243 0 000 2.484h5.726a1.243 1.243 0 000-2.484zM9.68 25.577h9.453a1.242 1.242 0 100-2.484H9.68a1.243 1.243 0 000 2.485z"/></symbol><symbol id="verification-card" viewBox="0 0 32 32" xmlns="http://www.w3.org/2000/svg"><path clip-rule="evenodd" d="M6.375 6.375h19.25A4.13 4.13 0 0129.75 10.5v11a4.13 4.13 0 01-4.125 4.125H6.375A4.13 4.13 0 012.25 21.5v-6.873h27.5v-2.75H2.25V10.5a4.13 4.13 0 014.125-4.125zM2.25 11.877v2.75-2.75zm15.125 8.246h5.5c.756 0 1.375-.618 1.375-1.375 0-.756-.619-1.375-1.375-1.375h-5.5A1.38 1.38 0 0016 18.748c0 .757.619 1.375 1.375 1.375z"/></symbol><symbol id="verification-address" viewBox="0 0 32 32" xmlns="http://www.w3.org/2000/svg"><path d="M28.155 14.327L17.672 3.843A2.346 2.346 0 0016 3.15c-.632 0-1.224.246-1.67.693L3.85 14.322l-.01.01a2.372 2.372 0 00.006 3.342c.421.422.973.663 1.57.688.025 0 .05.005.076.005h.416v7.713c0 1.526 1.24 2.77 2.77 2.77h4.1a.752.752 0 00.753-.752v-6.053c0-.697.567-1.265 1.265-1.265h2.419c.698 0 1.265.568 1.265 1.265v6.047c0 .417.336.753.753.753h4.095c1.525 0 2.77-1.24 2.77-2.77v-7.713h.386c.633 0 1.225-.246 1.671-.693a2.372 2.372 0 000-3.342z"/></symbol><symbol id="verification-check" viewBox="0 0 16 16" xmlns="http://www.w3.org/2000/svg"><path d="M6.332 15.2L0 9.149l2.204-2.483 3.795 3.627L13.483.801 16 2.939 6.332 15.2z"/></symbol><symbol id="verification-close" viewBox="0 0 16 16" xmlns="http://www.w3.org/2000/svg"><path d="M14.993 3.621l-4.545 4.545 4.545 4.546a1.731 1.731 0 01-2.447 2.448L8 10.614 3.454 15.16c-.337.338-.78.506-1.223.506a1.731 1.731 0 01-1.224-2.955l4.545-4.545-4.545-4.545a1.73 1.73 0 012.447-2.448L8 5.72l4.545-4.546a1.731 1.731 0 012.448 2.448z"/></symbol><symbol id="verification-doc" viewBox="0 0 48 48" xmlns="http://www.w3.org/2000/svg"><path clip-rule="evenodd" d="M27.999 7.957l7.484 8.044h-6.056c-.788 0-1.428-.762-1.428-1.7V7.957zm11.481 6.7l-8.89-10a1.995 1.995 0 00-1.48-.655h-16c-2.82 0-5.112 2.244-5.112 5v30c0 2.756 2.292 5 5.112 5h21.776c2.82 0 5.112-2.244 5.112-5v-23c0-.498-.184-.976-.518-1.344z"/></symbol><symbol id="verification-document" viewBox="0 0 32 32" xmlns="http://www.w3.org/2000/svg"><path d="M26.595 5.688H5.4A3.154 3.154 0 002.248 8.84v14.325a3.153 3.153 0 003.153 3.147H26.6a3.154 3.154 0 003.153-3.153V8.84a3.162 3.162 0 00-3.158-3.152zm-15.753 4.58a2.865 2.865 0 012.862 2.864 2.865 2.865 0 01-2.862 2.862 2.865 2.865 0 01-2.863-2.862 2.869 2.869 0 012.863-2.863zm5.156 10.603c0 .473-.387.86-.86.86H6.545a.862.862 0 01-.86-.86v-.574a3.154 3.154 0 013.153-3.153h4.012a3.154 3.154 0 013.153 3.153v.574h-.005zm9.453.86h-6.3a.862.862 0 01-.86-.86c0-.472.387-.86.86-.86h6.3c.472 0 .859.388.859.86 0 .473-.387.86-.86.86zm0-4.587h-6.3a.862.862 0 01-.86-.86c0-.472.387-.859.86-.859h6.3c.472 0 .859.387.859.86 0 .472-.387.859-.86.859zm0-4.582h-6.3a.862.862 0 01-.86-.859c0-.473.387-.86.86-.86h6.3c.472 0 .859.387.859.86s-.387.86-.86.86z"/></symbol><symbol id="verification-funds" viewBox="0 0 33 33" xmlns="http://www.w3.org/2000/svg"><path d="M10.575 9.84c-.556.01-.869 0-.869 0h.869zM29.508 20.416c-3.405 2.055-7.732 3.464-12.854 4.194-3.06.435-5.052.498-8.14.498-.577 0-1.197 0-1.864-.005-.768-.005-1.642-.005-2.595-.005-.074 0-.1.1-.032.137 1.494.768 5.948 2.701 12.838 2.701 4.052 0 8.421-.683 11.943-2.584a2.39 2.39 0 001.255-2.103v-2.52a.366.366 0 00-.55-.313zM16.496 16.751c.948 0 1.716-.768 1.716-1.716s-.768-1.71-1.716-1.71-1.716.767-1.716 1.715c0 .948.773 1.711 1.716 1.711z"/><path d="M4.055 22.868c.959 0 1.832.005 2.606.005 4.136.016 6.207.022 9.681-.471 4.761-.678 8.919-2.028 12.028-3.898.005 0 .01-.005.01-.005l1.5-.88a.362.362 0 00.18-.312V7.451c0-1.764-1.85-2.918-3.427-2.145-6.25 3.045-13.882 3.39-16.069 3.421-.546.01 1.536 0-5.233 0a2.39 2.39 0 00-2.394 2.389v11.117c0 .35.286.635.636.635h.482zM23.497 8.892l1.695-.567a1.114 1.114 0 01.704 2.113l-1.694.567a1.111 1.111 0 01-1.409-.704 1.114 1.114 0 01.704-1.41zm-7.001 2.203a3.947 3.947 0 013.94 3.94 3.946 3.946 0 01-3.94 3.94 3.946 3.946 0 01-3.94-3.94 3.947 3.947 0 013.94-3.94zm-9.051 6.79h1.694a1.112 1.112 0 110 2.224H7.445a1.112 1.112 0 110-2.225z"/></symbol><symbol id="verification-selfie" viewBox="0 0 26 24" xmlns="http://www.w3.org/2000/svg"><path d="M9.434 7.987c0-1.948 1.596-3.532 3.558-3.532 1.963 0 3.559 1.584 3.559 3.532 0 1.949-1.596 3.532-3.559 3.532-1.962 0-3.558-1.583-3.558-3.532zM19.401 16.828v.709c0 .583-.48 1.06-1.068 1.06H7.652a1.067 1.067 0 01-1.068-1.06v-.71c0-2.147 1.755-3.89 3.918-3.89h4.987c2.156 0 3.912 1.743 3.912 3.89z"/><path clip-rule="evenodd" d="M16.113 1.054c0-.582.472-1.054 1.054-1.054h6.801c.583 0 1.055.472 1.055 1.054v6.801a1.054 1.054 0 01-2.11 0V2.11h-5.746a1.054 1.054 0 01-1.054-1.055zM9.888 22.946c0 .582-.472 1.054-1.054 1.054H2.033a1.054 1.054 0 01-1.054-1.054v-6.801a1.054 1.054 0 012.108 0v5.746h5.747c.582 0 1.054.472 1.054 1.055zM9.888 1.054C9.888.472 9.416 0 8.834 0H2.033C1.45 0 .979.472.979 1.054v6.801a1.054 1.054 0 102.108 0V2.11h5.747c.582 0 1.054-.472 1.054-1.055zM16.113 22.946c0 .582.472 1.054 1.054 1.054h6.801c.583 0 1.055-.472 1.055-1.054v-6.801a1.054 1.054 0 00-2.11 0v5.746h-5.746c-.582 0-1.054.472-1.054 1.055z"/></symbol><symbol id="verification-reload" viewBox="0 0 12 14" xmlns="http://www.w3.org/2000/svg"><path d="M11.23 6.403a.96.96 0 00-1.208-.608.952.952 0 00-.612 1.202c.123.351.177.73.177 1.107 0 1.959-1.603 3.566-3.586 3.566-.964 0-1.86-.365-2.54-1.04a3.522 3.522 0 01-1.046-2.526c0-1.836 1.413-3.35 3.206-3.538v1.377c0 .406.462.635.788.392l3.097-2.35a.48.48 0 000-.77L6.409.852a.492.492 0 00-.788.391v1.405C2.768 2.85.5 5.214.5 8.118a5.43 5.43 0 001.616 3.876 5.482 5.482 0 003.885 1.594c3.043 0 5.501-2.458 5.501-5.47 0-.594-.081-1.162-.271-1.715z"/></symbol><symbol id="verification-transaction" viewBox="0 0 33 33" xmlns="http://www.w3.org/2000/svg"><path fill-rule="evenodd" clip-rule="evenodd" d="M24.253 14.22c3.567 0 6.492-2.911 6.492-6.479 0-3.567-2.911-6.478-6.479-6.478-3.58 0-6.491 2.898-6.491 6.465 0 3.568 2.911 6.479 6.478 6.492zm3.004-4.984l-.014.014a.98.98 0 01-1.298.432l-.862-.435h-.002c-.432-.217-.862-.433-1.287-.653-.314-.158-.498-.433-.498-.787V3.571a.982.982 0 111.967 0c0 .983 0 2.465-.013 3.279-.013.236.079.354.275.445.433.21.866.42 1.299.643a.965.965 0 01.433 1.298zM9.775 29.735h11.291a3.011 3.011 0 003.017-3.03v-7.96c0-1.351-.892-2.532-2.177-2.912-.433-.118-2.01-.979-3.41-2.303-1.401-1.323-2.402-3.795-2.532-4.936-.148-1.299-1.258-2.767-2.74-2.767h-3.45a3.03 3.03 0 00-3.029 3.03v17.848a3.04 3.04 0 003.03 3.03zM16.4 18.622h-5.726a1.243 1.243 0 000 2.484H16.4a1.243 1.243 0 000-2.484zm-5.726 7.454h9.453a1.242 1.242 0 100-2.484h-9.453a1.243 1.243 0 000 2.485z"/></symbol><symbol id="verification-time" viewBox="0 0 18 18" xmlns="http://www.w3.org/2000/svg"><path clip-rule="evenodd" d="M16 12H8a2 2 0 01-2-2V2a2 2 0 114 0v6h6c1.106 0 2 .894 2 2 0 1.106-.894 2-2 2"/></symbol><symbol id="verification" viewBox="0 0 16 17" xmlns="http://www.w3.org/2000/svg"><path d="M3.705 7.456h8.103c1.94 0 3.525-1.565 3.525-3.478C15.333 2.065 13.747.5 11.808.5H3.705C1.766.5.18 2.065.18 3.978c0 1.913 1.586 3.478 3.525 3.478zm7.883-5.522c1.145 0 2.072.915 2.072 2.044 0 1.13-.928 2.044-2.072 2.044-1.144 0-2.072-.915-2.072-2.044 0-1.13.928-2.044 2.072-2.044zM11.628 9.543H3.525C1.586 9.543 0 11.11 0 13.021 0 14.934 1.586 16.5 3.525 16.5h8.103c1.939 0 3.525-1.565 3.525-3.478 0-1.913-1.586-3.479-3.525-3.479zm-7.883 5.523c-1.144 0-2.072-.915-2.072-2.044 0-1.13.928-2.045 2.072-2.045 1.144 0 2.072.916 2.072 2.045s-.928 2.044-2.072 2.044z"/></symbol><symbol id="verification-upload" viewBox="0 0 48 48" xmlns="http://www.w3.org/2000/svg"><path clip-rule="evenodd" d="M43.692 22.654c.043.136.086.272.114.413A9.92 9.92 0 0144 25c0 .616-.072 1.222-.184 1.82a5.792 5.792 0 01-.092.398l-.044.178a10.29 10.29 0 01-.606 1.754c-.174.38-.376.744-.598 1.102a6.648 6.648 0 00-.1.169c-.055.093-.11.187-.172.277a.98.98 0 00-.05.08c-.016.029-.032.057-.052.084-.015.022-.037.037-.058.05a.226.226 0 00-.048.038C40.172 33.393 37.284 35 34 35h-6v-2.534A3.98 3.98 0 0030 33a3.973 3.973 0 002.828-1.172 4.003 4.003 0 000-5.656l-6-6a3.963 3.963 0 00-2.824-1.17 4.002 4.002 0 00-2.776 1.112l-6.006 5.8a4.005 4.005 0 00-.098 5.656 4.024 4.024 0 002.88 1.224c.71 0 1.394-.186 1.996-.534V35h-6c-3.284 0-6.172-1.606-7.994-4.05a.248.248 0 00-.048-.037c-.022-.014-.044-.028-.06-.05-.021-.03-.039-.06-.056-.091-.014-.025-.028-.05-.044-.074a4.419 4.419 0 01-.177-.284l-.097-.162a10.3 10.3 0 01-.598-1.102c-.085-.185-.16-.373-.234-.565l-.008-.019a10.281 10.281 0 01-.362-1.17l-.039-.15c-.036-.14-.072-.28-.099-.426A10.047 10.047 0 014 25c0-.662.072-1.306.194-1.932.03-.145.074-.285.118-.426.026-.08.051-.161.074-.244l.025-.092c.095-.351.19-.703.325-1.036.072-.18.161-.35.25-.52a12.823 12.823 0 00.154-.3c.14-.28.28-.555.448-.818a7.33 7.33 0 01.417-.574l.103-.134.007-.009c.194-.249.386-.495.601-.727.193-.208.4-.394.61-.583l.036-.033c.236-.212.476-.416.732-.604.238-.176.482-.336.736-.488.28-.172.566-.326.862-.468.26-.126.52-.24.792-.342.324-.124.658-.222.998-.31a8.44 8.44 0 01.814-.188c.053-.01.104-.023.155-.037.066-.018.13-.036.199-.045C14.292 10.321 18.84 7 24 7c5.162 0 9.71 3.322 11.35 8.09.068.01.134.027.2.045.052.014.103.028.156.037a8.4 8.4 0 01.812.188 8.999 8.999 0 011.79.652c.296.142.582.296.862.468.254.152.5.312.738.488.254.188.494.392.73.604.224.2.442.396.648.616.218.234.412.484.606.736l.076.098c.155.199.309.396.446.61.166.262.304.536.444.815l.04.08.115.223c.09.17.179.34.251.52.136.334.232.687.328 1.04l.024.088c.023.087.05.172.076.257zM22.61 21.559a2.005 2.005 0 012.804.026l6 6A1.998 1.998 0 0130 30.999a1.995 1.995 0 01-1.414-.586L26 27.827v11.172a2 2 0 11-4 0V27.71l-2.61 2.52c-.794.77-2.06.744-2.828-.05a2 2 0 01.048-2.828l6-5.794z"/></symbol><symbol id="vip-fill" xmlns="http://www.w3.org/2000/svg" viewBox="0 0 20 17"><path d="M6.187.198L5.32 4.201H0c.01-.07.024-.141.04-.211l2.39-2.881a2.509 2.509 0 011.931-.91h1.826zm1.656 0h4.513l.869 4.003h-6.25L7.843.198zm-.852 5.483l2.938 11.18a2.6 2.6 0 00.342-.003L13.21 5.68H6.99zm12.989 0a2.4 2.4 0 01-.026.224l-7.869 10.707a2.516 2.516 0 01-.296.12l2.904-11.051h5.287zm-.022-1.48l.042-.09-2.491-3.002a2.509 2.509 0 00-1.93-.91h-1.744l.868 4.002h5.255zM0 5.681h5.35l2.91 11.072a2.507 2.507 0 01-.396-.157L.032 5.938A2.599 2.599 0 010 5.681z"/></symbol><symbol id="virtuals" xmlns="http://www.w3.org/2000/svg" viewBox="0 0 21 20"><g clip-path="url(#a)"><path d="M14.212 17.5c.429 0 .714-.273.714-.682 0-.409-.285-.682-.714-.682H7.07c-.428 0-.714.273-.714.682 0 .41.286.682.714.682h7.143zM8.998 7.818l1.286-.886V5.909l-1.215-.818c-.571.273-1.071.614-1.428 1.09l.428 1.364.929.273zm.857 2.386l-.572.75.43 1.364c.285.068.57.136.928.136.357 0 .643-.068.928-.136l.429-1.364-.572-.75H9.855zm3.357-2.727l.429-1.363a3.648 3.648 0 00-1.5-1.023l-1.143.818v.955l1.286.886.928-.273zm-4.429.887l-.928-.273-1.214.818c.071.614.285 1.16.571 1.705h1.5l.571-.75-.5-1.5zm3.715 0l-.5 1.5.571.75h1.5c.286-.478.5-1.091.572-1.705l-1.215-.818-.928.273z"/><path d="M19.926 2.5H1.355c-.429 0-.714.273-.714.682V14.09c0 .409.285.682.714.682h18.571c.429 0 .715-.273.715-.682V3.18c0-.408-.286-.681-.715-.681zm-9.285 10.568c-2.572 0-4.643-1.977-4.643-4.432 0-2.454 2.071-4.431 4.643-4.431 2.571 0 4.643 1.977 4.643 4.431 0 2.455-2.072 4.432-4.643 4.432z"/></g></symbol><symbol id="warning-fill" viewBox="0 0 20 20" xmlns="http://www.w3.org/2000/svg"><path fill-rule="evenodd" d="M11.6 2.2a1.8 1.8 0 00-3.2 0L.3 15.6c-.8 1.3.1 3.1 1.6 3.1h16.2c1.5 0 2.4-1.8 1.6-3.1L11.6 2.2zM8.9 12h2.2V6.6H8.9V12zm0 1.8V16h2.2v-2.2H8.9z"/></symbol><symbol id="weekly-challenges-fill" viewBox="0 0 24 24" xmlns="http://www.w3.org/2000/svg"><path d="M17 15.245v6.872a.5.5 0 01-.757.429L12 20l-4.243 2.546a.5.5 0 01-.757-.43v-6.87a8 8 0 1110 0v-.001zM12 15a6 6 0 100-12 6 6 0 000 12zm0-2a4 4 0 110-8 4 4 0 010 8z"/></symbol><symbol id="virtual" xmlns="http://www.w3.org/2000/svg" viewBox="0 0 20 16"><path d="M13.571 15.266c.429 0 .715-.273.715-.682 0-.409-.286-.682-.715-.682H6.43c-.429 0-.715.273-.715.682 0 .41.286.682.715.682h7.142zM8.357 5.584l1.286-.886V3.675l-1.214-.818c-.572.272-1.072.613-1.429 1.09l.429 1.364.928.273zm.857 2.386l-.571.75.428 1.364c.286.068.572.136.929.136.357 0 .643-.068.929-.136l.428-1.364-.571-.75H9.214zm3.357-2.727L13 3.88a3.65 3.65 0 00-1.5-1.022l-1.143.818v.955l1.286.886.928-.273zm-4.428.887l-.929-.273L6 6.675c.071.614.286 1.16.571 1.705h1.5l.572-.75-.5-1.5zm3.714 0l-.5 1.5.572.75h1.5c.285-.478.5-1.091.571-1.705l-1.214-.818-.929.272z"/><path d="M19.286.266H.714C.286.266 0 .539 0 .948v10.909c0 .409.286.682.714.682h18.572c.428 0 .714-.273.714-.682V.947c0-.408-.286-.681-.714-.681zM10 10.834c-2.571 0-4.643-1.977-4.643-4.432C5.357 3.948 7.43 1.97 10 1.97c2.571 0 4.643 1.978 4.643 4.432 0 2.455-2.072 4.432-4.643 4.432z"/></symbol><symbol id="verification-wallet" viewBox="0 0 33 33" xmlns="http://www.w3.org/2000/svg"><path d="M25.093 21.081a5.165 5.165 0 01-5.157-5.156 5.165 5.165 0 015.157-5.157h2.863V9.34a3.153 3.153 0 00-3.148-3.152H5.901a3.154 3.154 0 00-3.153 3.152v14.326a3.153 3.153 0 003.153 3.148h18.907a3.154 3.154 0 003.153-3.153V21.08h-2.868z"/><path d="M29.39 12.487h-4.297a3.44 3.44 0 00-3.438 3.438 3.44 3.44 0 003.438 3.437h4.297c.473 0 .86-.386.86-.859v-5.156a.862.862 0 00-.86-.86zm-4.297 4.587a1.145 1.145 0 01-1.144-1.144c0-.628.51-1.15 1.144-1.15.634 0 1.144.516 1.144 1.145 0 .628-.51 1.15-1.144 1.15z"/></symbol></svg>